 <svg version="1.0" xmlns="http://www.w3.org/2000/svg" width="700.000000pt" height="490.000000pt" viewBox="0 0 700.000000 490.000000" preserveAspectRatio="xMidYMid meet">
<metadata>
Created by potrace 1.12, written by Peter Selinger 2001-2015
</metadata>
<g transform="translate(0.000000,490.000000) scale(0.100000,-0.100000)" fill="#000000" stroke="none">
<path d="M4530 4178 c-25 -5 -49 -14 -54 -19 -6 -5 -16 -9 -23 -9 -18 0 -128
-78 -226 -160 -65 -54 -84 -77 -112 -135 -18 -38 -47 -83 -64 -99 -19 -18 -31
-40 -31 -55 0 -19 -24 -51 -83 -113 -46 -49 -86 -88 -89 -88 -2 0 -52 -45
-109 -101 -124 -121 -244 -229 -254 -229 -9 0 -208 -169 -221 -188 -7 -10 -15
-27 -19 -39 -10 -34 15 -29 51 8 49 53 217 201 235 208 10 3 71 57 137 119 66
61 123 112 126 112 3 0 6 -9 6 -20 0 -13 -10 -24 -25 -30 -17 -6 -25 -17 -25
-33 0 -25 -62 -97 -83 -97 -15 0 -98 -71 -200 -169 -93 -90 -232 -289 -214
-308 4 -3 8 -4 10 -2 2 2 24 34 50 71 83 118 113 129 216 77 65 -33 221 -172
274 -245 82 -115 92 -141 76 -200 -16 -57 -42 -88 -102 -122 -61 -34 -141
-105 -131 -115 4 -4 50 -7 102 -7 84 0 102 3 150 28 77 38 154 111 186 175 14
30 26 61 26 71 0 43 30 103 78 159 28 33 52 65 52 70 0 5 18 29 40 53 34 37
56 76 90 159 5 11 19 45 33 75 13 30 31 69 39 87 17 37 114 143 131 143 7 0
43 -40 80 -89 37 -49 111 -129 164 -178 182 -164 239 -231 284 -327 8 -17 35
-50 60 -76 31 -31 50 -61 60 -94 28 -97 92 -106 198 -28 45 33 77 50 85 45 7
-5 50 -50 97 -100 53 -59 92 -93 105 -93 39 0 189 133 218 195 28 57 21 89
-25 126 -22 17 -59 57 -82 88 -22 31 -54 69 -70 85 -32 33 -63 95 -117 241
-13 35 -27 69 -53 125 -24 51 -318 654 -338 692 -62 118 -84 155 -119 203 -70
95 -168 141 -321 150 -190 12 -226 12 -269 3z m-275 -248 c3 -10 2 -28 -4 -38
-14 -27 -57 -53 -75 -46 -18 7 -18 7 -21 -61 -1 -28 -11 -67 -21 -87 -33 -65
-224 -228 -224 -192 0 4 29 38 65 76 39 41 68 81 72 99 3 17 19 43 35 60 16
16 34 46 40 66 9 33 100 143 119 143 4 0 10 -9 14 -20z"></path>
<path d="M3059 2837 c-32 -19 -116 -115 -107 -121 2 -1 35 31 74 71 39 40 71
73 70 73 -1 0 -17 -11 -37 -23z"></path>
<path d="M3211 2678 c-17 -24 -54 -76 -82 -116 -76 -111 -123 -130 -234 -97
-113 34 -195 74 -195 96 0 15 72 49 105 49 39 0 65 8 65 21 0 13 -102 10 -127
-4 -42 -24 -153 -167 -153 -199 0 -7 -12 -22 -27 -34 -16 -12 -25 -26 -20 -30
13 -13 61 30 85 76 24 49 73 104 56 65 -4 -11 -8 -38 -9 -60 0 -28 -5 -41 -16
-43 -14 -2 -17 -25 -18 -155 -3 -211 -14 -335 -33 -354 -14 -13 -18 -12 -34
16 -13 22 -26 31 -44 31 -14 0 -34 6 -45 14 -11 7 -39 16 -62 19 -40 5 -44 3
-60 -24 l-18 -30 -14 48 c-7 26 -16 76 -18 109 -6 84 26 148 115 231 37 33 64
64 60 68 -11 12 -95 -61 -136 -119 -65 -91 -66 -94 -64 -195 2 -94 14 -152 39
-182 16 -20 44 -110 37 -121 -3 -4 -24 -18 -47 -29 -52 -26 -123 -83 -143
-115 -9 -13 -20 -40 -24 -60 -7 -29 -5 -39 12 -56 11 -11 16 -23 12 -27 -28
-24 -148 -103 -199 -131 -33 -19 -86 -51 -118 -72 -51 -33 -87 -41 -87 -18 0
9 31 35 66 56 11 7 16 14 13 18 -7 8 -89 -32 -89 -44 0 -5 -20 -29 -45 -54
-25 -26 -45 -51 -45 -57 0 -6 -13 -27 -30 -46 -16 -18 -30 -40 -30 -47 0 -18
-55 -40 -77 -32 -25 10 -152 -5 -167 -19 -17 -17 -72 -45 -89 -45 -8 0 -20 7
-27 15 -10 13 -10 19 4 34 23 26 12 30 -59 20 -33 -4 -88 -8 -123 -8 -59 -1
-65 1 -97 34 -19 19 -35 36 -35 39 0 5 104 13 298 22 74 3 122 10 122 16 0 7
-50 9 -152 4 -84 -3 -241 -8 -348 -11 -107 -4 -211 -10 -230 -16 -47 -12 -317
-12 -325 1 -9 14 -168 13 -202 -2 -40 -17 -73 -49 -73 -70 0 -25 37 -77 187
-266 252 -318 295 -366 345 -380 50 -15 355 -12 633 7 83 5 229 14 325 20 96
7 182 14 190 17 14 5 195 18 465 34 183 10 433 29 480 36 38 5 171 16 435 34
250 17 416 31 432 36 10 3 84 10 165 15 490 35 653 48 674 54 16 5 112 14 394
35 219 16 371 30 395 36 14 3 77 10 140 16 375 31 530 47 550 54 16 7 158 19
395 34 216 13 378 28 426 39 24 6 75 11 113 11 70 0 178 16 206 30 32 16 21
37 -32 63 -46 22 -78 35 -183 77 -11 4 -36 14 -55 22 -19 8 -51 21 -70 28 -19
6 -46 17 -60 22 -14 6 -34 14 -45 18 -31 12 -108 42 -130 51 -54 22 -65 21
-103 -9 -54 -43 -140 -92 -197 -112 -27 -10 -68 -25 -90 -34 -47 -18 -128 -21
-157 -5 -14 8 -28 7 -49 -1 -23 -10 -32 -10 -44 0 -9 7 -26 9 -45 5 -23 -5
-32 -3 -36 10 -5 12 -14 15 -34 12 -19 -4 -31 0 -43 14 -9 10 -24 19 -32 19
-8 0 -15 7 -15 15 0 11 7 14 24 9 13 -3 27 -1 30 5 4 6 20 11 35 11 16 0 43
10 62 23 19 12 53 28 77 35 46 14 216 157 206 173 -3 5 -15 9 -28 9 -13 0 -49
9 -81 20 -69 24 -87 20 -113 -24 -23 -39 -127 -120 -186 -146 -67 -28 -154
-35 -204 -15 -26 11 -54 15 -72 11 -24 -4 -30 -2 -30 12 0 38 52 71 130 82 42
6 71 18 109 45 59 43 66 60 19 50 -18 -4 -89 -11 -158 -15 -69 -5 -217 -16
-330 -25 -113 -9 -315 -20 -450 -25 -348 -13 -859 -43 -945 -55 -38 -6 -128
-11 -575 -33 -102 -6 -205 -15 -230 -20 -26 -6 -56 -9 -69 -5 -16 4 -31 -2
-54 -24 -46 -43 -157 -118 -256 -173 -47 -26 -175 -96 -284 -155 -143 -78
-201 -115 -210 -134 -14 -30 -115 -71 -182 -75 -36 -2 -42 -7 -61 -42 -21 -41
-39 -50 -64 -34 -12 8 -13 13 -2 30 19 31 14 50 -14 61 -21 7 -32 6 -51 -7
-63 -41 -202 -69 -218 -44 -3 6 -26 10 -51 10 -38 0 -45 3 -42 17 2 10 16 24
31 31 48 23 32 43 -17 21 -30 -14 -76 -4 -76 16 0 15 56 35 100 35 55 1 123
27 131 48 6 16 17 22 38 22 16 0 32 4 35 9 3 5 23 12 43 16 21 4 50 14 67 22
24 13 39 13 87 4 88 -18 114 -8 223 77 53 42 140 111 193 153 53 41 98 80 100
86 4 12 -141 7 -204 -7 -53 -13 -210 -13 -217 -1 -6 10 20 27 119 81 33 18
112 67 175 109 63 42 128 83 145 91 16 8 70 54 119 103 49 48 94 87 99 87 5 0
25 -10 44 -21 33 -21 41 -21 127 -11 141 16 146 18 233 112 97 105 131 155
167 245 56 142 87 199 132 238 24 21 44 47 44 58 0 22 -25 99 -49 154 -34 75
-34 79 5 157 20 40 44 81 52 91 8 9 13 19 10 22 -3 3 -20 -14 -37 -37z m-399
-224 c17 -9 26 -19 22 -23 -15 -13 -102 -34 -113 -26 -19 11 -12 34 17 49 34
19 37 19 74 0z m265 -86 c18 -18 33 -38 33 -44 0 -7 -11 -34 -25 -60 -27 -50
-31 -74 -15 -74 6 0 10 4 10 9 0 13 69 65 77 58 3 -3 -13 -27 -36 -53 -22 -26
-41 -56 -41 -68 0 -25 -26 -92 -64 -165 l-27 -53 -23 21 c-16 15 -35 21 -68
21 -28 0 -50 6 -58 15 -7 8 -23 15 -35 15 -18 0 -25 7 -31 33 -4 17 -7 42 -5
54 3 27 -19 41 -31 19 -14 -25 -33 -19 -53 18 -16 30 -17 40 -6 97 14 74 30
119 42 119 12 0 59 -72 59 -92 0 -9 5 -20 10 -23 6 -3 10 -17 10 -31 0 -41 25
-27 53 31 16 33 37 60 52 67 24 11 41 41 37 65 -4 17 48 53 76 53 16 0 39 -13
59 -32z"></path>
<path d="M2880 2057 c-72 -19 -59 -40 28 -45 58 -3 72 -1 72 11 0 15 -31 47
-46 46 -5 0 -29 -6 -54 -12z"></path>
<path d="M3050 2685 c-7 -9 -10 -18 -7 -22 8 -7 37 15 37 28 0 14 -16 11 -30
-6z"></path>
<path d="M3000 2630 c0 -5 9 -10 20 -10 11 0 20 5 20 10 0 6 -9 10 -20 10 -11
0 -20 -4 -20 -10z"></path>
<path d="M2900 2600 c0 -5 16 -10 35 -10 19 0 35 5 35 10 0 6 -16 10 -35 10
-19 0 -35 -4 -35 -10z"></path>
<path d="M5970 2471 c0 -8 15 -34 34 -60 74 -101 111 -199 142 -371 9 -52 23
-120 30 -150 8 -30 23 -113 34 -183 25 -160 44 -235 81 -315 16 -35 29 -66 29
-70 0 -22 22 -82 30 -82 13 0 12 43 -1 77 -6 15 -15 37 -19 48 -5 11 -17 40
-28 65 -21 48 -46 144 -57 220 -15 101 -24 148 -40 215 -21 89 -34 153 -45
235 -9 67 -21 117 -41 160 -7 14 -17 36 -23 50 -32 74 -126 193 -126 161z"></path>
<path d="M5280 2341 c0 -8 53 -115 81 -160 24 -42 150 -224 183 -266 48 -60
109 -191 140 -297 l16 -56 -36 -64 c-20 -34 -43 -70 -51 -80 -21 -24 2 -33 25
-10 34 34 82 110 88 139 8 40 -21 143 -68 246 -40 84 -40 88 -23 107 23 25 14
88 -16 113 -24 19 -69 23 -86 6 -12 -12 -76 72 -153 204 -27 45 -56 92 -65
105 -16 22 -35 30 -35 13z"></path>
<path d="M3547 2137 c-25 -30 -62 -82 -83 -118 -85 -146 -202 -275 -454 -499
-136 -121 -240 -224 -240 -237 0 -29 24 -22 61 17 22 23 61 60 87 82 26 22
134 126 240 231 157 156 207 213 268 303 41 62 74 117 74 124 0 6 27 40 60 74
53 55 64 76 40 76 -4 0 -28 -24 -53 -53z"></path>
<path d="M5788 2118 c4 -30 30 -84 92 -193 12 -22 26 -45 31 -50 13 -17 81
-157 91 -190 16 -51 29 -108 36 -159 9 -63 32 -75 32 -16 0 101 -57 265 -139
403 -37 61 -82 140 -101 175 -18 34 -36 62 -40 62 -3 0 -4 -15 -2 -32z"></path>
<path d="M2364 2095 c-4 -14 -4 -29 0 -32 9 -10 36 18 36 38 0 28 -29 23 -36
-6z"></path>
<path d="M5727 2073 c8 -81 55 -205 87 -232 9 -8 16 -20 16 -28 0 -16 52 -132
107 -238 20 -38 42 -80 47 -92 6 -13 14 -23 19 -23 9 0 9 7 -2 28 -9 16 -32
68 -83 182 -11 25 -31 69 -44 98 -13 29 -24 57 -24 61 0 5 -11 31 -24 58 -45
90 -66 143 -66 162 0 27 -18 71 -29 71 -4 0 -6 -21 -4 -47z"></path>
<path d="M2242 1818 c-118 -94 -257 -225 -418 -392 -98 -102 -188 -189 -199
-192 -11 -4 -35 -24 -53 -45 -34 -40 -37 -41 -104 -22 -10 2 -18 0 -18 -6 0
-6 18 -15 41 -21 34 -9 45 -8 69 7 56 36 175 148 303 285 72 76 165 168 206
203 238 199 245 205 223 213 -5 1 -28 -12 -50 -30z"></path>
<path d="M2639 1521 c-120 -79 -379 -311 -347 -311 9 0 68 49 130 109 69 66
152 134 213 173 93 60 133 93 124 102 -2 2 -56 -31 -120 -73z"></path>
<path d="M5880 1566 c0 -9 5 -16 10 -16 6 0 10 4 10 9 0 6 -4 13 -10 16 -5 3
-10 -1 -10 -9z"></path>
<path d="M2810 1390 c0 -5 5 -10 10 -10 6 0 10 5 10 10 0 6 -4 10 -10 10 -5 0
-10 -4 -10 -10z"></path>
<path d="M1370 1130 c0 -5 5 -10 11 -10 5 0 7 5 4 10 -3 6 -8 10 -11 10 -2 0
-4 -4 -4 -10z"></path>
</g>
</svg>