 <svg version="1.0" xmlns="http://www.w3.org/2000/svg" width="700.000000pt" height="800.000000pt" viewBox="0 0 700.000000 800.000000" preserveAspectRatio="xMidYMid meet">
<metadata>
Created by potrace 1.12, written by Peter Selinger 2001-2015
</metadata>
<g transform="translate(0.000000,800.000000) scale(0.100000,-0.100000)" fill="#000000" stroke="none">
<path d="M3593 7923 c-13 -2 -23 -8 -23 -13 0 -5 44 -9 98 -9 53 0 109 -4 122
-10 14 -5 50 -17 80 -26 71 -21 157 -81 181 -125 66 -125 99 -221 99 -292 0
-54 -14 -64 -24 -17 -4 21 -28 53 -70 94 -120 115 -332 195 -373 139 -24 -33
37 -106 117 -139 53 -22 80 -43 80 -62 0 -7 8 -13 19 -13 20 0 51 -39 51 -63
0 -8 9 -17 20 -20 27 -7 26 -37 -1 -37 -18 0 -20 -4 -15 -37 3 -21 -1 -78 -11
-128 -17 -96 -25 -312 -12 -354 4 -14 12 -44 18 -66 6 -22 18 -49 26 -60 16
-19 16 -19 10 10 -3 17 -11 50 -16 75 -26 108 -20 227 13 265 4 5 8 16 8 25 0
8 9 26 20 40 11 14 20 37 20 52 0 40 39 74 55 48 25 -40 18 -261 -9 -323 -8
-18 -8 -25 15 -135 11 -55 11 -67 -4 -97 -16 -34 -18 -35 -61 -29 -47 7 -46 7
-219 -96 -23 -14 -164 -147 -314 -297 -184 -185 -283 -277 -309 -288 -69 -29
-136 -1 -149 63 -6 31 -2 37 93 130 54 53 119 123 143 155 24 32 58 77 76 100
17 23 29 45 26 50 -6 10 -32 -11 -52 -44 -26 -41 -99 -125 -196 -223 -99 -100
-101 -104 -139 -224 -20 -63 -26 -104 -25 -165 0 -74 4 -88 34 -142 58 -103
63 -118 69 -200 14 -185 18 -221 26 -240 46 -99 75 -255 51 -269 -5 -3 -11
-23 -14 -43 -3 -21 -13 -65 -22 -98 -33 -119 -37 -141 -44 -226 -3 -47 -3
-157 2 -245 10 -225 10 -252 -1 -314 -10 -53 -28 -129 -39 -160 -10 -29 -5
-187 12 -375 27 -287 40 -383 70 -490 9 -33 20 -76 24 -95 5 -19 11 -42 14
-50 2 -8 17 -55 32 -105 15 -49 31 -99 35 -110 32 -80 40 -113 50 -186 5 -46
10 -101 10 -122 0 -22 8 -49 20 -65 23 -32 40 -154 34 -254 -5 -89 9 -98 140
-98 104 0 106 -1 106 -68 0 -68 22 -77 133 -57 173 30 321 83 330 116 2 9 -5
49 -15 90 -26 98 -36 149 -47 239 -5 41 -15 89 -21 105 -17 42 -18 337 -1 394
15 51 28 144 41 291 5 58 14 150 20 205 6 55 13 128 17 162 3 35 12 68 19 74
8 6 14 20 14 30 0 10 5 21 10 24 6 3 10 21 10 39 0 17 4 36 9 41 45 50 76 343
51 490 -17 107 -58 262 -73 282 -9 13 -5 62 12 148 6 28 14 70 19 95 4 25 11
51 15 58 7 11 12 55 37 317 5 55 17 141 25 190 9 50 20 122 25 160 9 75 32
169 54 219 24 54 34 89 52 170 22 102 15 270 -16 371 -51 172 -63 205 -72 205
-6 0 -8 -8 -5 -17 2 -10 21 -74 42 -143 43 -146 55 -280 36 -382 -7 -35 -32
-121 -56 -193 -24 -71 -46 -152 -50 -180 -3 -27 -12 -86 -20 -130 -8 -44 -18
-107 -24 -140 -6 -33 -17 -139 -26 -235 -8 -96 -19 -188 -24 -205 -5 -16 -14
-57 -21 -90 -7 -33 -18 -86 -26 -117 -9 -41 -10 -65 -3 -86 11 -32 6 -58 -39
-197 -44 -134 -79 -264 -87 -317 -3 -26 -15 -58 -26 -73 -20 -24 -20 -30 -9
-108 7 -45 9 -111 6 -147 -4 -36 -10 -117 -15 -180 -9 -129 -20 -174 -43 -178
-23 -4 -25 13 -18 118 3 52 5 97 3 99 -10 13 -28 -25 -34 -71 -13 -95 -51
-243 -66 -260 -13 -14 -19 -15 -31 -6 -15 13 -19 9 -48 -39 -10 -15 -13 -16
-28 -4 -9 7 -16 20 -16 27 0 8 -10 14 -25 14 -14 0 -29 8 -35 20 -19 35 -24
146 -10 225 9 53 10 79 3 86 -8 8 -15 3 -24 -17 -19 -37 -45 -52 -61 -36 -10
10 -9 22 1 60 7 26 15 85 18 132 7 112 44 192 123 270 106 104 163 281 219
670 12 80 30 186 41 235 19 85 19 119 15 640 -5 536 -9 605 -37 605 -5 0 -6
-28 -2 -70 5 -58 4 -71 -9 -76 -27 -10 -104 47 -142 106 -52 83 -51 185 3 280
30 53 104 150 114 150 4 0 33 32 64 70 31 39 60 70 65 70 5 0 28 12 52 27 31
20 55 27 94 27 46 1 56 -3 86 -32 39 -38 56 -29 33 17 -22 42 -17 238 6 255 9
7 18 33 22 61 29 254 29 251 14 286 -32 72 -37 89 -29 86 5 -1 9 1 10 6 4 31
-3 51 -30 81 -26 31 -29 40 -23 73 4 21 11 44 17 51 5 7 10 45 10 85 0 62 -5
85 -40 167 -50 116 -93 168 -170 205 -32 15 -66 31 -75 36 -10 5 -26 9 -35 9
-10 0 -36 7 -58 15 -37 13 -151 18 -202 8z m557 -673 c9 -17 8 -20 -9 -20 -22
0 -35 15 -26 30 10 16 23 12 35 -10z m-1043 -1720 c9 -19 19 -55 23 -80 20
-117 30 -161 54 -234 25 -76 30 -131 17 -190 -5 -24 -12 -11 -45 89 -39 117
-54 211 -55 341 -1 45 -8 74 -26 110 -21 40 -22 45 -5 24 11 -14 28 -41 37
-60z m95 -689 c0 -85 -7 -114 -61 -261 -25 -68 -27 -178 -5 -263 12 -49 13
-69 4 -111 -19 -82 -20 -84 -36 -54 -18 34 -27 247 -11 266 7 9 7 20 -1 37 -7
16 -8 35 -1 57 5 18 9 50 9 70 0 20 4 47 9 60 5 13 15 57 22 98 7 41 16 80 20
85 4 6 13 38 20 73 17 84 31 58 31 -57z m551 -2868 c-7 -2 -19 -2 -25 0 -7 3
-2 5 12 5 14 0 19 -2 13 -5z"></path>
<path d="M3503 7903 c-7 -2 -13 -9 -13 -14 0 -15 53 -6 58 9 4 12 -21 15 -45
5z"></path>
<path d="M3413 7849 c-6 -6 -22 -16 -35 -23 -50 -24 -139 -256 -98 -256 6 0
10 12 10 26 0 14 9 46 19 72 11 26 22 55 25 65 4 13 16 17 50 17 50 0 62 10
46 39 -8 16 -6 23 12 35 12 9 33 16 45 16 13 0 23 5 23 10 0 14 -83 13 -97 -1z"></path>
<path d="M3472 7728 c3 -7 15 -15 28 -16 21 -3 22 -2 11 12 -16 19 -44 21 -39
4z"></path>
<path d="M3662 7708 c5 -15 37 -18 41 -3 1 6 -9 12 -22 13 -16 3 -22 -1 -19
-10z"></path>
<path d="M3627 7574 c-15 -15 -6 -36 33 -78 22 -24 40 -52 40 -63 0 -45 57
-58 99 -22 13 11 22 21 20 22 -2 2 -30 16 -62 32 -42 21 -63 39 -80 69 -22 40
-38 52 -50 40z"></path>
<path d="M3260 7540 c0 -5 5 -10 10 -10 6 0 10 5 10 10 0 6 -4 10 -10 10 -5 0
-10 -4 -10 -10z"></path>
<path d="M3340 7517 c-28 -14 -40 -47 -16 -47 16 0 56 37 56 52 0 11 -11 10
-40 -5z"></path>
<path d="M3363 7439 c2 -46 22 -63 43 -34 7 10 20 15 29 12 29 -12 16 32 -15
48 -48 25 -59 20 -57 -26z"></path>
<path d="M3270 7405 c0 -14 -18 -50 -40 -80 -22 -30 -40 -58 -40 -64 0 -5 16
-23 36 -41 26 -23 40 -28 47 -21 8 8 1 19 -23 40 -27 22 -32 32 -24 42 45 56
78 149 54 149 -5 0 -10 -11 -10 -25z"></path>
<path d="M3836 7352 c-3 -6 1 -15 8 -21 8 -7 17 -8 20 -3 3 6 -1 15 -8 21 -8
7 -17 8 -20 3z"></path>
<path d="M3790 7269 c0 -5 5 -7 10 -4 6 3 10 8 10 11 0 2 -4 4 -10 4 -5 0 -10
-5 -10 -11z"></path>
<path d="M3266 7158 c-8 -37 -4 -92 7 -105 5 -7 6 -32 3 -56 -5 -35 -3 -49 12
-67 16 -20 32 -24 108 -30 49 -4 97 -11 107 -15 24 -10 22 12 -2 25 -11 5 -51
10 -88 10 -89 0 -104 11 -114 86 -9 65 2 84 48 84 36 0 27 14 -19 31 -35 12
-43 19 -41 37 4 29 -15 29 -21 0z"></path>
<path d="M4230 7141 c0 -6 5 -13 10 -16 6 -3 10 1 10 9 0 9 -4 16 -10 16 -5 0
-10 -4 -10 -9z"></path>
<path d="M4260 7075 c5 -20 13 -49 18 -63 6 -15 13 -53 17 -84 4 -32 11 -58
16 -58 11 0 1 115 -12 142 -5 9 -9 28 -9 41 0 13 -9 32 -19 41 -19 17 -19 16
-11 -19z"></path>
<path d="M3530 6841 c0 -4 4 -21 9 -37 5 -16 12 -46 16 -66 3 -21 10 -38 15
-38 11 0 0 77 -17 118 -13 31 -23 41 -23 23z"></path>
<path d="M4310 6800 c0 -11 5 -20 10 -20 6 0 10 9 10 20 0 11 -4 20 -10 20 -5
0 -10 -9 -10 -20z"></path>
<path d="M4040 6730 c0 -5 5 -10 10 -10 6 0 10 5 10 10 0 6 -4 10 -10 10 -5 0
-10 -4 -10 -10z"></path>
<path d="M4277 6662 c-23 -76 -46 -202 -40 -218 10 -27 21 -13 25 34 5 51 25
137 39 164 11 22 12 78 2 78 -5 0 -16 -26 -26 -58z"></path>
<path d="M4055 6687 c-4 -10 -5 -21 -1 -24 10 -10 18 4 13 24 -4 17 -4 17 -12
0z"></path>
<path d="M3549 6643 c-1 -40 -37 -94 -86 -133 -49 -38 -65 -60 -45 -60 4 0 33
22 64 50 40 36 61 63 72 97 19 54 19 63 6 63 -5 0 -10 -8 -11 -17z"></path>
<path d="M4205 6420 c-8 -13 13 -70 26 -70 5 0 9 13 9 29 0 32 -24 59 -35 41z"></path>
<path d="M3607 3301 c-19 -76 -22 -121 -8 -121 10 0 21 35 21 72 0 15 5 30 10
33 12 7 14 85 2 85 -5 0 -16 -31 -25 -69z"></path>
<path d="M3570 3120 c0 -22 5 -40 10 -40 6 0 10 18 10 40 0 22 -4 40 -10 40
-5 0 -10 -18 -10 -40z"></path>
<path d="M3660 3104 c0 -14 4 -23 10 -19 6 3 10 15 10 26 0 10 -4 19 -10 19
-5 0 -10 -12 -10 -26z"></path>
<path d="M3340 1770 c0 -60 5 -142 11 -182 13 -92 36 -243 49 -329 5 -36 10
-139 10 -228 0 -137 -3 -172 -21 -229 -26 -81 -48 -131 -66 -154 -18 -21 1
-35 23 -17 24 20 45 68 71 159 20 73 23 107 23 250 0 156 -6 212 -44 455 -9
55 -19 150 -22 210 -6 134 -12 175 -24 175 -6 0 -10 -47 -10 -110z"></path>
<path d="M4025 1678 c0 -140 -3 -160 -28 -238 -15 -47 -52 -182 -82 -300 -30
-118 -59 -223 -65 -232 -5 -10 -10 -28 -10 -41 0 -13 -9 -50 -20 -82 -11 -32
-20 -73 -20 -92 0 -18 -4 -33 -10 -33 -21 0 -10 -94 15 -135 39 -64 42 -76 46
-155 l4 -75 -40 -19 c-22 -10 -71 -24 -110 -31 -38 -7 -103 -20 -143 -29 -40
-9 -84 -16 -96 -16 -13 0 -49 -11 -80 -25 -47 -21 -70 -24 -148 -23 -51 0
-102 4 -113 8 -11 4 -34 1 -52 -6 -27 -12 -34 -12 -47 1 -8 8 -16 20 -18 27
-4 10 -8 10 -21 0 -23 -19 -63 -12 -59 11 3 16 0 17 -18 7 -29 -16 -68 -5 -81
23 -12 24 -100 87 -123 87 -19 0 -28 14 -20 33 7 19 174 93 229 102 22 3 60
17 85 30 25 14 65 34 90 46 25 11 56 31 70 44 34 31 96 65 120 65 11 0 20 5
20 10 0 13 -333 14 -358 1 -37 -19 -243 -44 -502 -62 -80 -5 -176 -11 -215
-14 -38 -2 -126 -9 -195 -15 -69 -6 -197 -16 -285 -22 -88 -6 -212 -14 -275
-18 -63 -5 -182 -13 -265 -19 -82 -6 -247 -18 -365 -27 -228 -17 -451 -30
-692 -40 l-148 -5 0 -210 0 -209 3016 0 c1880 0 3022 4 3033 9 10 6 58 13 107
16 49 3 96 8 104 10 19 6 172 25 275 36 154 15 271 28 330 39 33 5 77 10 98
10 l37 0 0 239 c0 218 -1 239 -17 245 -10 3 -25 10 -33 15 -8 5 -60 31 -115
56 -115 53 -114 53 -178 88 -26 15 -52 27 -58 27 -6 0 -36 12 -67 26 -31 14
-66 29 -77 34 -11 4 -36 15 -55 23 -98 42 -197 45 -365 12 -49 -10 -138 -21
-197 -26 -222 -18 -327 -28 -478 -44 -154 -16 -288 -27 -535 -44 -71 -5 -202
-17 -290 -26 -199 -22 -400 -35 -570 -38 -111 -2 -129 0 -126 13 2 8 6 26 8
40 3 14 8 34 12 45 11 27 42 142 61 230 22 98 31 134 46 185 9 30 18 70 21 88
3 18 9 35 14 38 5 3 9 14 9 26 0 11 7 43 16 72 9 28 20 65 25 82 20 70 4 304
-21 304 -3 0 -6 -69 -5 -152z"></path>
<path d="M3726 434 c-4 -9 -4 -19 -2 -21 8 -8 26 8 26 23 0 19 -16 18 -24 -2z"></path>
<path d="M2810 290 c0 -5 7 -10 16 -10 8 0 12 5 9 10 -3 6 -10 10 -16 10 -5 0
-9 -4 -9 -10z"></path>
</g>
</svg>