 <svg version="1.0" xmlns="http://www.w3.org/2000/svg" width="700.000000pt" height="490.000000pt" viewBox="0 0 700.000000 490.000000" preserveAspectRatio="xMidYMid meet">
<metadata>
Created by potrace 1.12, written by Peter Selinger 2001-2015
</metadata>
<g transform="translate(0.000000,490.000000) scale(0.100000,-0.100000)" fill="#000000" stroke="none">
<path d="M1436 4111 c5 -5 34 -20 65 -33 31 -12 57 -27 58 -33 1 -5 -20 -12
-45 -15 -73 -8 -64 -25 14 -26 37 -1 80 -7 96 -13 48 -19 44 -2 -10 48 -38 35
-67 52 -111 64 -68 19 -81 21 -67 8z"></path>
<path d="M1112 4070 c-44 -35 -152 -166 -152 -184 0 -3 -10 -23 -23 -44 -51
-83 -56 -163 -18 -247 11 -22 25 -53 32 -70 20 -44 124 -143 160 -152 24 -7
34 -17 45 -48 7 -22 14 -54 14 -71 0 -17 7 -38 16 -45 14 -11 21 -10 45 4 28
15 33 15 70 1 22 -9 44 -25 50 -35 5 -11 20 -19 33 -19 13 0 29 -6 35 -14 6
-8 25 -19 41 -26 25 -10 34 -9 64 9 18 12 46 37 60 56 22 28 34 35 61 35 19 0
36 -4 39 -9 8 -12 76 -19 76 -9 0 14 -88 48 -122 48 -23 0 -42 -12 -79 -50
-57 -59 -80 -62 -142 -23 -23 15 -64 38 -91 52 -42 21 -53 23 -79 13 -36 -14
-52 -4 -60 36 -3 15 -8 38 -13 51 -6 20 -4 22 13 17 22 -7 49 16 38 34 -3 5
-24 10 -46 10 -28 0 -39 4 -39 15 0 11 -8 13 -30 8 -36 -7 -60 12 -122 95 -39
52 -39 54 -21 74 18 20 17 21 -4 35 -30 20 -31 73 -3 98 11 10 20 22 20 27 0
14 -19 9 -41 -13 -33 -33 -35 -13 -6 44 15 29 27 56 27 60 0 5 20 39 44 77 46
70 121 153 166 182 18 12 20 17 9 17 -9 1 -39 -17 -67 -39z"></path>
<path d="M1677 3984 c-14 -14 6 -24 36 -19 18 3 39 1 47 -4 12 -8 12 -13 -4
-30 -23 -26 -42 -27 -55 -3 -8 14 -13 15 -30 5 -12 -7 -34 -13 -50 -13 -16 0
-51 -9 -78 -21 -26 -11 -61 -26 -78 -33 -16 -7 -50 -22 -75 -32 -25 -10 -57
-26 -72 -36 -14 -10 -30 -18 -35 -18 -5 0 -20 -11 -33 -25 -18 -19 -20 -27
-11 -39 9 -11 7 -15 -13 -20 -24 -6 -53 -42 -43 -53 3 -2 30 2 61 10 37 9 59
10 65 4 7 -7 15 -7 23 0 7 5 32 15 55 23 43 13 82 45 70 57 -4 3 -24 -2 -46
-11 -45 -21 -110 -14 -91 9 8 9 8 15 0 20 -11 7 102 69 143 79 12 2 31 -2 41
-10 11 -8 30 -14 42 -14 12 0 24 -7 28 -15 7 -19 30 -19 47 1 17 21 113 84
128 84 24 0 72 -42 91 -80 11 -22 27 -61 36 -87 9 -26 32 -72 51 -101 29 -42
33 -55 23 -67 -10 -12 -8 -16 12 -24 13 -5 29 -15 35 -22 6 -8 14 -78 17 -164
8 -199 9 -207 30 -300 32 -140 50 -151 61 -37 4 42 8 140 9 217 2 116 6 148
22 185 30 66 46 76 97 63 29 -8 46 -8 54 -1 20 16 16 23 -24 46 -65 36 -175
163 -222 255 -8 15 -18 27 -23 27 -11 0 -10 -18 2 -25 6 -3 10 -13 10 -21 0
-21 105 -168 141 -199 39 -32 33 -32 -25 1 -35 19 -62 26 -104 27 -56 0 -58 1
-75 36 -10 20 -15 44 -12 53 4 10 -2 34 -13 55 -11 21 -28 55 -38 75 -10 21
-43 63 -72 93 -44 45 -52 58 -42 70 6 8 9 19 5 25 -7 11 -107 14 -118 4z"></path>
<path d="M1877 3923 c22 -21 42 -47 46 -57 4 -10 10 -16 14 -12 9 9 -18 58
-47 83 -43 38 -54 25 -13 -14z"></path>
<path d="M1694 3822 c-14 -10 -104 -118 -104 -126 0 -3 7 -6 15 -6 26 0 109
-47 123 -70 7 -11 17 -18 22 -15 5 3 11 1 15 -5 3 -5 17 -10 31 -10 17 0 24
-5 24 -20 0 -11 6 -20 14 -20 29 0 26 20 -9 58 -19 22 -35 47 -35 56 0 21 -57
141 -74 155 -6 5 -16 7 -22 3z"></path>
<path d="M1509 3760 c-23 -18 -23 -19 -4 -20 35 0 65 12 65 26 0 20 -34 17
-61 -6z"></path>
<path d="M1152 3704 c-12 -8 -22 -19 -22 -25 0 -15 26 -10 43 9 30 33 17 43
-21 16z"></path>
<path d="M1349 3601 c-33 -13 -63 -17 -98 -13 -42 4 -51 2 -51 -11 0 -20 30
-29 83 -26 23 1 55 -1 70 -5 34 -10 67 15 67 51 0 27 -10 28 -71 4z"></path>
<path d="M1488 3605 c-7 -8 3 -54 13 -60 4 -3 13 4 19 15 15 28 -12 65 -32 45z"></path>
<path d="M1870 3552 c0 -5 7 -15 15 -22 8 -7 15 -8 15 -2 0 5 -7 15 -15 22 -8
7 -15 8 -15 2z"></path>
<path d="M2799 3283 c0 -5 0 -38 1 -75 1 -36 -3 -74 -8 -85 -6 -10 -18 -38
-28 -62 -22 -53 -98 -158 -160 -222 -47 -49 -46 -44 -84 -261 -5 -26 -13 -55
-19 -66 -18 -35 8 -45 64 -26 27 9 60 13 74 10 14 -3 46 -9 71 -14 25 -4 52
-12 60 -17 8 -5 35 -13 60 -17 25 -4 65 -12 90 -17 212 -48 265 -56 274 -42 9
13 48 15 62 2 5 -5 32 -11 59 -14 118 -13 195 -32 260 -65 46 -24 154 -62 176
-62 20 0 143 -65 238 -124 22 -15 44 -26 48 -26 5 0 40 -16 78 -35 39 -19 76
-35 83 -35 7 0 20 -4 30 -9 16 -8 137 -41 232 -62 55 -13 140 -24 286 -38 61
-6 124 -15 138 -21 15 -5 44 -10 65 -10 25 0 52 -9 77 -26 35 -24 42 -25 71
-14 54 19 309 -8 358 -39 49 -30 198 -68 307 -78 69 -6 98 -33 98 -92 0 -19
12 -67 26 -106 14 -38 28 -77 31 -85 4 -13 6 -12 17 3 7 9 18 17 24 17 12 0
17 15 28 75 7 37 8 38 15 15 4 -14 7 -46 8 -72 1 -36 6 -50 21 -58 29 -15 25
-34 -12 -62 -79 -60 -136 -72 -205 -43 -19 8 -46 15 -59 15 -12 0 -26 5 -29
11 -8 12 22 49 40 49 6 0 22 11 34 24 15 16 29 22 44 18 12 -3 19 -1 14 3 -4
5 0 16 9 26 21 24 13 34 -43 53 -54 19 -149 21 -190 5 -15 -6 -104 -15 -198
-21 -93 -5 -233 -13 -310 -18 -276 -17 -495 -28 -785 -39 -162 -7 -302 -15
-310 -18 -8 -4 -105 -10 -215 -15 -364 -14 -627 -26 -900 -44 -148 -9 -352
-19 -452 -21 -141 -3 -184 -7 -193 -18 -7 -8 -22 -56 -35 -107 -69 -279 -116
-413 -154 -432 -31 -16 -129 -36 -178 -36 -27 0 -35 -5 -44 -27 -14 -38 -38
-63 -61 -63 -26 0 -33 25 -14 52 25 35 20 55 -14 60 -16 2 -35 -1 -42 -8 -21
-19 -139 -54 -184 -54 -42 0 -64 13 -44 25 26 16 5 24 -48 19 -46 -5 -60 -3
-71 10 -11 13 -11 17 5 22 11 3 27 10 36 15 10 5 27 9 38 9 11 0 20 5 20 10 0
7 -24 10 -62 8 -51 -2 -63 0 -66 13 -2 10 6 19 20 23 25 7 159 25 251 33 55 5
82 23 33 23 -40 0 -40 18 0 35 43 18 201 21 237 4 20 -9 30 -8 51 6 15 10 31
25 36 35 8 14 21 169 24 280 l1 35 -100 5 c-112 6 -103 -4 -85 90 12 64 32
132 61 205 4 11 10 36 13 55 8 54 22 128 41 210 9 41 20 113 25 160 13 116 26
206 33 217 5 7 14 64 38 223 14 99 25 145 39 167 13 20 12 25 -7 51 -18 25
-49 87 -88 177 -7 17 -18 50 -26 75 -16 56 -68 142 -80 134 -15 -9 -10 -46 16
-109 14 -33 25 -68 25 -77 0 -9 9 -20 20 -23 11 -3 20 -14 20 -24 0 -9 4 -21
9 -27 5 -5 26 -40 46 -78 l36 -70 -20 -80 c-11 -45 -31 -157 -46 -251 -14 -93
-33 -198 -41 -232 -7 -34 -14 -81 -14 -105 -1 -24 -5 -61 -9 -83 -5 -22 -20
-95 -34 -161 -14 -67 -35 -147 -46 -179 -33 -92 -64 -256 -52 -268 7 -7 4 -18
-9 -35 -11 -14 -20 -35 -20 -48 0 -50 -68 -84 -95 -48 -17 24 -77 2 -127 -48
-26 -26 -46 -38 -60 -36 -37 5 -32 28 17 74 46 42 47 56 3 33 -11 -6 -44 -15
-72 -19 -28 -4 -87 -17 -130 -29 -80 -21 -156 -28 -156 -13 0 14 23 32 42 32
10 0 18 5 18 10 0 7 -20 9 -60 4 -42 -5 -64 -3 -75 6 -21 18 -9 30 31 30 19 0
34 5 34 10 0 6 -7 10 -15 10 -8 0 -15 5 -15 11 0 7 55 10 170 8 151 -2 193 1
179 15 -10 10 -292 14 -349 5 -64 -10 -548 -32 -665 -30 -33 0 -125 3 -205 6
l-145 6 -37 -28 c-40 -30 -50 -70 -23 -93 8 -7 15 -18 15 -25 0 -17 69 -148
151 -287 16 -27 29 -51 29 -54 0 -3 16 -30 35 -60 19 -30 35 -57 35 -60 0 -3
16 -30 35 -60 19 -30 35 -58 35 -62 0 -17 57 -59 95 -71 43 -13 381 -10 690 8
334 19 512 30 555 36 42 6 186 15 530 35 325 18 486 30 510 36 14 4 90 11 170
16 431 26 693 45 730 53 14 3 90 10 170 16 80 5 199 14 265 19 66 4 188 13
270 19 83 6 161 13 175 17 14 3 84 10 155 16 72 5 180 13 240 18 221 16 371
29 400 35 32 7 204 22 380 35 128 9 313 27 370 36 39 6 171 17 410 34 66 4
140 11 165 14 25 3 101 10 170 17 132 12 150 14 181 24 25 8 25 47 0 60 -81
42 -310 146 -386 175 -11 4 -31 12 -45 18 -55 24 -67 23 -83 -2 -25 -38 -119
-86 -176 -91 -28 -3 -53 0 -56 5 -3 6 -16 5 -31 -2 -19 -9 -30 -9 -45 0 -10 7
-26 12 -35 12 -19 0 -86 69 -78 82 3 4 19 8 36 8 16 0 45 7 63 16 36 17 85 73
85 97 0 9 -21 25 -47 37 -27 12 -56 26 -65 31 -10 5 -24 9 -31 9 -8 0 -21 8
-30 18 -20 22 -23 130 -5 165 6 12 14 29 18 37 12 25 38 23 96 -6 75 -38 90
-71 86 -186 -2 -70 0 -88 11 -88 10 0 16 16 19 50 3 28 12 58 22 68 25 28 20
42 -35 105 -50 57 -129 107 -168 107 -11 0 -37 -20 -58 -45 l-39 -46 -37 33
c-21 18 -58 52 -83 75 -25 24 -57 45 -72 49 -71 14 -112 27 -112 35 0 5 7 9
15 9 8 0 15 5 15 10 0 6 -10 10 -22 10 -13 0 -33 3 -45 6 -14 4 -23 2 -23 -5
0 -6 7 -11 15 -11 8 0 15 -4 15 -10 0 -5 -9 -10 -19 -10 -11 0 -23 5 -26 10
-3 6 -18 10 -33 10 -15 0 -60 10 -101 23 l-75 22 2 150 c3 182 -2 198 -70 205
-26 3 -55 13 -65 23 -10 9 -44 19 -76 23 -61 7 -71 14 -81 58 -4 16 -21 42
-38 58 -26 24 -38 28 -92 28 -37 0 -70 6 -82 14 -11 8 -46 16 -79 19 -97 9
-122 17 -244 80 -64 33 -135 69 -157 81 -25 13 -49 35 -60 56 -24 44 -153 174
-227 229 -110 81 -285 163 -392 183 -86 16 -205 21 -205 9 0 -6 16 -11 36 -11
34 0 146 -24 189 -40 18 -7 17 -9 -10 -19 -16 -6 -38 -16 -47 -21 -24 -13 -74
-11 -123 5 l-40 13 48 -5 c68 -8 60 13 -10 27 -75 15 -113 29 -140 52 -23 21
-69 36 -148 47 -27 4 -60 12 -72 19 -12 7 -32 12 -44 12 -22 0 -44 6 -134 34
-22 7 -54 11 -70 9 -24 -4 -37 2 -64 31 -19 20 -42 36 -50 36 -9 0 -25 7 -35
15 -22 16 -36 19 -37 8z m88 -79 c-9 -10 -38 16 -31 28 4 6 13 4 22 -6 9 -8
13 -19 9 -22z m132 -48 c9 -10 8 -16 -4 -26 -13 -10 -19 -10 -35 5 -11 10 -17
22 -14 26 8 14 40 11 53 -5z"></path>
<path d="M1779 3159 c-1 -2 -7 -40 -13 -84 -12 -80 -5 -157 27 -268 7 -27 7
-51 -1 -88 -7 -28 -12 -70 -12 -94 0 -24 -5 -56 -11 -72 -6 -15 -17 -88 -24
-161 -8 -73 -18 -139 -22 -145 -39 -61 -63 -214 -51 -325 6 -48 7 -139 4 -202
-16 -277 -29 -364 -64 -402 -23 -26 1 -22 25 4 53 57 68 187 64 548 l-3 215
31 97 c22 67 35 133 41 210 6 62 14 136 19 163 32 172 35 215 21 308 -8 51
-14 135 -15 189 0 53 -3 100 -7 104 -5 4 -8 5 -9 3z"></path>
<path d="M2105 2660 c-4 -7 4 -23 19 -39 26 -27 26 -28 16 -105 -6 -42 -18
-98 -25 -124 -8 -26 -15 -58 -15 -72 0 -15 -4 -30 -9 -35 -12 -13 -18 -71 -31
-289 -5 -99 -14 -184 -19 -190 -21 -28 -36 -446 -15 -453 7 -2 13 55 18 184 3
103 13 219 21 258 8 39 15 122 15 186 0 123 17 256 49 379 33 130 43 191 37
224 -8 40 -50 93 -61 76z"></path>
<path d="M2461 2428 c-5 -13 -20 -52 -34 -88 -27 -69 -82 -244 -117 -375 -22
-80 -30 -136 -49 -320 -6 -55 -15 -116 -21 -135 -17 -57 -10 -150 11 -150 5 0
9 16 9 35 0 18 4 56 10 82 5 26 14 100 20 163 11 128 23 213 39 280 34 140 41
168 49 200 9 31 63 190 79 230 4 8 12 34 18 58 12 44 1 59 -14 20z"></path>
<path d="M5140 2371 c0 -4 32 -16 72 -26 98 -24 148 -46 237 -109 94 -66 106
-73 97 -57 -15 23 -143 119 -187 139 -37 17 -192 62 -213 62 -3 0 -6 -4 -6 -9z"></path>
<path d="M5564 2161 c3 -5 26 -12 51 -15 86 -13 189 -56 299 -125 61 -39 123
-74 137 -80 14 -5 64 -27 110 -49 125 -58 203 -87 314 -117 189 -50 190 -72
25 -423 -31 -65 -36 -82 -22 -82 5 0 19 21 32 48 12 26 26 55 31 64 5 10 9 23
9 29 0 6 23 58 50 116 62 129 67 180 21 214 -31 23 -124 59 -151 59 -20 0
-133 36 -177 56 -17 8 -34 14 -37 14 -4 0 -46 18 -94 41 -48 23 -103 48 -122
57 -19 9 -64 35 -100 60 -84 57 -189 106 -268 126 -70 18 -116 21 -108 7z"></path>
<path d="M6430 1635 c-8 -9 -8 -15 -2 -15 12 0 26 19 19 26 -2 2 -10 -2 -17
-11z"></path>
<path d="M1570 1290 c0 -5 5 -10 10 -10 6 0 10 5 10 10 0 6 -4 10 -10 10 -5 0
-10 -4 -10 -10z"></path>
<path d="M2027 904 c-8 -8 1 -24 14 -24 5 0 9 7 9 15 0 15 -12 20 -23 9z"></path>
<path d="M1550 780 c0 -5 7 -10 15 -10 8 0 15 5 15 10 0 6 -7 10 -15 10 -8 0
-15 -4 -15 -10z"></path>
</g>
</svg>