<?xml version="1.0" encoding="utf-8"?>
<svg id="master-artboard" viewBox="0 0 1746.1834716796875 1202.1829833984375" version="1.1" xmlns="http://www.w3.org/2000/svg" x="0px" y="0px" style="enable-background:new 0 0 336 235.2;" width="1746.1834716796875px" height="1202.1829833984375px" xmlns:xlink="http://www.w3.org/1999/xlink"><rect id="ee-background" x="0" y="0" width="1746.1834716796875" height="1202.1829833984375" style="fill: white; fill-opacity: 0; pointer-events: none;"/>

<defs>
		<path d="M 0 0 H 336 V 235.199997 H 0 V 0 Z" id="SVGID_1_"/>
	</defs><clipPath id="SVGID_2_">
		<use style="overflow:visible;" xlink:href="#SVGID_1_"/>
	</clipPath><linearGradient id="SVGID_3_" gradientUnits="userSpaceOnUse" x1="166.8674" y1="110.6171" x2="151.7467" y2="-13.2299">
		<stop offset="0" style="stop-color:#FFF6BD"/>
		<stop offset="1" style="stop-color:#ACDDF8"/>
	</linearGradient><path d="M -26.4 -0.5 H 362.399988 V 240.199997 H -26.4 V -0.5 Z" class="st0" style="clip-path: url('#SVGID_2_'); fill: url('#SVGID_3_');" transform="matrix(5.2150797843933105, 0, 0, 5.2150797843933105, -4.819404602050781, -8.172268867492676)"/><path d="M 175.1999969482422 102.5 L 160.8000030517578 102.5 L 156 -8.399999618530273 L 180 -8.399999618530273 Z" class="st2" style="fill: rgb(252, 194, 0); opacity: 0.29; clip-path: url('#SVGID_2_');" transform="matrix(5.2150797843933105, 0, 0, 5.2150797843933105, -4.819404602050781, -8.172268867492676)"/><path d="M 199.6999969482422 137 L 199.6999969482422 122.5999984741211 L 381.1000061035156 117.80000305175781 L 381.1000061035156 141.8000030517578 Z" class="st2" style="fill: rgb(252, 194, 0); opacity: 0.29; clip-path: url('#SVGID_2_');" transform="matrix(5.2150797843933105, 0, 0, 5.2150797843933105, -4.819404602050781, -8.172268867492676)"/><path d="M 137.5 117.5 L 142.5 104.0999984741211 L -25.700000762939453 35.900001525878906 L -34.099998474121094 58.400001525878906 Z" class="st2" style="fill: rgb(252, 194, 0); opacity: 0.29; clip-path: url('#SVGID_2_');" transform="matrix(5.2150797843933105, 0, 0, 5.2150797843933105, -4.819404602050781, -8.172268867492676)"/><path d="M 146.60000610351562 105.19999694824219 L 157.8000030517578 96.0999984741211 L 47.099998474121094 -47.70000076293945 L 28.5 -32.599998474121094 Z" class="st2" style="fill: rgb(252, 194, 0); opacity: 0.29; clip-path: url('#SVGID_2_');" transform="matrix(5.2150797843933105, 0, 0, 5.2150797843933105, -4.819404602050781, -8.172268867492676)"/><path d="M 199.8000030517578 117.5 L 194.8000030517578 104.0999984741211 L 363 35.900001525878906 L 371.3999938964844 58.400001525878906 Z" class="st2" style="fill: rgb(252, 194, 0); opacity: 0.29; clip-path: url('#SVGID_2_');" transform="matrix(5.2150797843933105, 0, 0, 5.2150797843933105, -4.819404602050781, -8.172268867492676)"/><path d="M 190.60000610351562 105.19999694824219 L 179.5 96.0999984741211 L 290.20001220703125 -47.70000076293945 L 308.79998779296875 -32.599998474121094 Z" class="st2" style="fill: rgb(252, 194, 0); opacity: 0.29; clip-path: url('#SVGID_2_');" transform="matrix(5.2150797843933105, 0, 0, 5.2150797843933105, -4.819404602050781, -8.172268867492676)"/><path d="M 138.1999969482422 137 L 138.1999969482422 122.5999984741211 L -43.20000076293945 117.80000305175781 L -43.20000076293945 141.8000030517578 Z" class="st2" style="fill: rgb(252, 194, 0); opacity: 0.29; clip-path: url('#SVGID_2_');" transform="matrix(5.2150797843933105, 0, 0, 5.2150797843933105, -4.819404602050781, -8.172268867492676)"/><path d="M 209.799999 126.5 A 41.799999 41.799999 0 0 1 168 168.299999 A 41.799999 41.799999 0 0 1 126.200001 126.5 A 41.799999 41.799999 0 0 1 168 84.700001 A 41.799999 41.799999 0 0 1 209.799999 126.5 Z" class="st3" style="clip-path: url('#SVGID_2_'); fill: rgb(252, 194, 0);" transform="matrix(5.2150797843933105, 0, 0, 5.2150797843933105, -4.819404602050781, -8.172268867492676)"/><path d="M -19.200001 130.300003 H 355.199993 V 207.100006 H -19.200001 V 130.300003 Z" class="st4" style="clip-path: url('#SVGID_2_'); fill: rgb(109, 165, 217);" transform="matrix(5.2150797843933105, 0, 0, 5.2150797843933105, -4.819404602050781, -8.172268867492676)"/><path d="M 288.299994 164.100006 A 2.9 0.3 0 0 1 285.399994 164.400006 A 2.9 0.3 0 0 1 282.499994 164.100006 A 2.9 0.3 0 0 1 285.399994 163.800006 A 2.9 0.3 0 0 1 288.299994 164.100006 Z" class="st6" style="fill: rgb(164, 217, 236); clip-path: url('#SVGID_2_');" transform="matrix(5.2150797843933105, 0, 0, 5.2150797843933105, -4.819404602050781, -8.172268867492676)"/><path d="M 321.000006 173.399994 A 2.9 0.3 0 0 1 318.100006 173.699994 A 2.9 0.3 0 0 1 315.200006 173.399994 A 2.9 0.3 0 0 1 318.100006 173.099994 A 2.9 0.3 0 0 1 321.000006 173.399994 Z" class="st6" style="fill: rgb(164, 217, 236); clip-path: url('#SVGID_2_');" transform="matrix(5.2150797843933105, 0, 0, 5.2150797843933105, -4.819404602050781, -8.172268867492676)"/><path d="M 285.699988 139.199997 A 2.9 0.3 0 0 1 282.799988 139.499997 A 2.9 0.3 0 0 1 279.899988 139.199997 A 2.9 0.3 0 0 1 282.799988 138.899997 A 2.9 0.3 0 0 1 285.699988 139.199997 Z" class="st6" style="fill: rgb(164, 217, 236); clip-path: url('#SVGID_2_');" transform="matrix(5.2150797843933105, 0, 0, 5.2150797843933105, -4.819404602050781, -8.172268867492676)"/><path d="M 249.4 130.800003 A 2.9 0.3 0 0 1 246.5 131.100003 A 2.9 0.3 0 0 1 243.6 130.800003 A 2.9 0.3 0 0 1 246.5 130.500003 A 2.9 0.3 0 0 1 249.4 130.800003 Z" class="st6" style="fill: rgb(164, 217, 236); clip-path: url('#SVGID_2_');" transform="matrix(5.2150797843933105, 0, 0, 5.2150797843933105, -4.819404602050781, -8.172268867492676)"/><path d="M 32.3 186 A 2.9 0.3 0 0 1 29.4 186.3 A 2.9 0.3 0 0 1 26.5 186 A 2.9 0.3 0 0 1 29.4 185.7 A 2.9 0.3 0 0 1 32.3 186 Z" class="st6" style="fill: rgb(164, 217, 236); clip-path: url('#SVGID_2_');" transform="matrix(5.2150797843933105, 0, 0, 5.2150797843933105, -4.819404602050781, -8.172268867492676)"/><path d="M 78.4 172.699997 A 2.9 0.3 0 0 1 75.5 172.999997 A 2.9 0.3 0 0 1 72.6 172.699997 A 2.9 0.3 0 0 1 75.5 172.399997 A 2.9 0.3 0 0 1 78.4 172.699997 Z" class="st6" style="fill: rgb(164, 217, 236); clip-path: url('#SVGID_2_');" transform="matrix(5.2150797843933105, 0, 0, 5.2150797843933105, -4.819404602050781, -8.172268867492676)"/><path d="M 85.9 140.300003 A 2.9 0.3 0 0 1 83 140.600003 A 2.9 0.3 0 0 1 80.1 140.300003 A 2.9 0.3 0 0 1 83 140.000003 A 2.9 0.3 0 0 1 85.9 140.300003 Z" class="st6" style="fill: rgb(164, 217, 236); clip-path: url('#SVGID_2_');" transform="matrix(5.2150797843933105, 0, 0, 5.2150797843933105, -4.819404602050781, -8.172268867492676)"/><path d="M 153.299994 134.899994 A 2.9 0.3 0 0 1 150.399994 135.199994 A 2.9 0.3 0 0 1 147.499994 134.899994 A 2.9 0.3 0 0 1 150.399994 134.599994 A 2.9 0.3 0 0 1 153.299994 134.899994 Z" class="st6" style="fill: rgb(164, 217, 236); clip-path: url('#SVGID_2_');" transform="matrix(5.2150797843933105, 0, 0, 5.2150797843933105, -4.819404602050781, -8.172268867492676)"/><path d="M 17.5 158 A 2.9 0.3 0 0 1 14.6 158.3 A 2.9 0.3 0 0 1 11.7 158 A 2.9 0.3 0 0 1 14.6 157.7 A 2.9 0.3 0 0 1 17.5 158 Z" class="st6" style="fill: rgb(164, 217, 236); clip-path: url('#SVGID_2_');" transform="matrix(5.2150797843933105, 0, 0, 5.2150797843933105, -4.819404602050781, -8.172268867492676)"/><path d="M 24.5 162.100006 A 2.9 0.3 0 0 1 21.6 162.400006 A 2.9 0.3 0 0 1 18.7 162.100006 A 2.9 0.3 0 0 1 21.6 161.800006 A 2.9 0.3 0 0 1 24.5 162.100006 Z" class="st6" style="fill: rgb(164, 217, 236); clip-path: url('#SVGID_2_');" transform="matrix(5.2150797843933105, 0, 0, 5.2150797843933105, -4.819404602050781, -8.172268867492676)"/><path d="M 300.800006 157.199997 A 5.7 0.7 0 0 1 295.100006 157.899997 A 5.7 0.7 0 0 1 289.400006 157.199997 A 5.7 0.7 0 0 1 295.100006 156.499997 A 5.7 0.7 0 0 1 300.800006 157.199997 Z" class="st6" style="fill: rgb(164, 217, 236); clip-path: url('#SVGID_2_');" transform="matrix(5.2150797843933105, 0, 0, 5.2150797843933105, -4.819404602050781, -8.172268867492676)"/><path d="M 338.900012 182.800003 A 5.7 0.7 0 0 1 333.200012 183.500003 A 5.7 0.7 0 0 1 327.500012 182.800003 A 5.7 0.7 0 0 1 333.200012 182.100003 A 5.7 0.7 0 0 1 338.900012 182.800003 Z" class="st6" style="fill: rgb(164, 217, 236); clip-path: url('#SVGID_2_');" transform="matrix(5.2150797843933105, 0, 0, 5.2150797843933105, -4.819404602050781, -8.172268867492676)"/><path d="M 323.499988 141.399994 A 5.7 0.7 0 0 1 317.799988 142.099994 A 5.7 0.7 0 0 1 312.099988 141.399994 A 5.7 0.7 0 0 1 317.799988 140.699994 A 5.7 0.7 0 0 1 323.499988 141.399994 Z" class="st6" style="fill: rgb(164, 217, 236); clip-path: url('#SVGID_2_');" transform="matrix(5.2150797843933105, 0, 0, 5.2150797843933105, -4.819404602050781, -8.172268867492676)"/><path d="M 299.7 190 A 5.7 0.7 0 0 1 294 190.7 A 5.7 0.7 0 0 1 288.3 190 A 5.7 0.7 0 0 1 294 189.3 A 5.7 0.7 0 0 1 299.7 190 Z" class="st6" style="fill: rgb(164, 217, 236); clip-path: url('#SVGID_2_');" transform="matrix(5.2150797843933105, 0, 0, 5.2150797843933105, -4.819404602050781, -8.172268867492676)"/><path d="M 8 176.100006 A 5.7 0.7 0 0 1 2.3 176.800006 A 5.7 0.7 0 0 1 -3.4 176.100006 A 5.7 0.7 0 0 1 2.3 175.400006 A 5.7 0.7 0 0 1 8 176.100006 Z" class="st6" style="fill: rgb(164, 217, 236); clip-path: url('#SVGID_2_');" transform="matrix(5.2150797843933105, 0, 0, 5.2150797843933105, -4.819404602050781, -8.172268867492676)"/><path d="M 23.8 134.699997 A 5.7 0.7 0 0 1 18.1 135.399997 A 5.7 0.7 0 0 1 12.400001 134.699997 A 5.7 0.7 0 0 1 18.1 133.999997 A 5.7 0.7 0 0 1 23.8 134.699997 Z" class="st6" style="fill: rgb(164, 217, 236); clip-path: url('#SVGID_2_');" transform="matrix(5.2150797843933105, 0, 0, 5.2150797843933105, -4.819404602050781, -8.172268867492676)"/><path d="M 93.799998 160.5 A 5.7 0.7 0 0 1 88.099998 161.2 A 5.7 0.7 0 0 1 82.399999 160.5 A 5.7 0.7 0 0 1 88.099998 159.8 A 5.7 0.7 0 0 1 93.799998 160.5 Z" class="st6" style="fill: rgb(164, 217, 236); clip-path: url('#SVGID_2_');" transform="matrix(5.2150797843933105, 0, 0, 5.2150797843933105, -4.819404602050781, -8.172268867492676)"/><path d="M 148.2 169.5 A 5.7 0.7 0 0 1 142.5 170.2 A 5.7 0.7 0 0 1 136.8 169.5 A 5.7 0.7 0 0 1 142.5 168.8 A 5.7 0.7 0 0 1 148.2 169.5 Z" class="st6" style="fill: rgb(164, 217, 236); clip-path: url('#SVGID_2_');" transform="matrix(5.2150797843933105, 0, 0, 5.2150797843933105, -4.819404602050781, -8.172268867492676)"/><path d="M 383 240 A 215 58.099998 0 0 1 168 298.099998 A 215 58.099998 0 0 1 -47 240 A 215 58.099998 0 0 1 168 181.900002 A 215 58.099998 0 0 1 383 240 Z" class="st7" style="clip-path: url('#SVGID_2_'); fill: rgb(253, 237, 179);" transform="matrix(5.2150797843933105, 0, 0, 5.2150797843933105, -4.819404602050781, -8.172268867492676)"/><path class="st8" d="M262.7,197.5V29c0-1.6,1.3-2.9,2.9-2.9h3.8c1.6,0,2.9,1.3,2.9,2.9v168.5H262.7z" style="fill: rgb(240, 151, 48); clip-path: url('#SVGID_2_');" transform="matrix(5.2150797843933105, 0, 0, 5.2150797843933105, -4.819404602050781, -8.172268867492676)"/><path d="M 262.700012 54.400002 H 272.300013 V 59.800002 H 262.700012 V 54.400002 Z" class="st9" style="fill: rgb(199, 114, 27); clip-path: url('#SVGID_2_');" transform="matrix(5.2150797843933105, 0, 0, 5.2150797843933105, -4.819404602050781, -8.172268867492676)"/><path d="M 262.700012 88.099998 H 272.300013 V 93.099998 H 262.700012 V 88.099998 Z" class="st9" style="fill: rgb(199, 114, 27); clip-path: url('#SVGID_2_');" transform="matrix(5.2150797843933105, 0, 0, 5.2150797843933105, -4.819404602050781, -8.172268867492676)"/><path d="M 262.700012 120.199997 H 272.300013 V 126.599997 H 262.700012 V 120.199997 Z" class="st9" style="fill: rgb(199, 114, 27); clip-path: url('#SVGID_2_');" transform="matrix(5.2150797843933105, 0, 0, 5.2150797843933105, -4.819404602050781, -8.172268867492676)"/><path d="M 332.3999938964844 112.5 L 325.20001220703125 124 L 256.3999938964844 124 L 256.3999938964844 100.9000015258789 L 325.20001220703125 100.9000015258789 Z" class="st8" style="fill: rgb(240, 151, 48); clip-path: url('#SVGID_2_');" transform="matrix(5.2150797843933105, 0, 0, 5.2150797843933105, -4.819404602050781, -8.172268867492676)"/><path d="M 332.3999938964844 45.29999923706055 L 325.20001220703125 56.79999923706055 L 256.3999938964844 56.79999923706055 L 256.3999938964844 33.70000076293945 L 325.20001220703125 33.70000076293945 Z" class="st8" style="fill: rgb(240, 151, 48); clip-path: url('#SVGID_2_');" transform="matrix(5.2150797843933105, 0, 0, 5.2150797843933105, -4.819404602050781, -8.172268867492676)"/><path d="M 203.10000610351562 78.9000015258789 L 210.3000030517578 90.4000015258789 L 279.1000061035156 90.4000015258789 L 279.1000061035156 67.30000305175781 L 210.3000030517578 67.30000305175781 Z" class="st8" style="fill: rgb(240, 151, 48); clip-path: url('#SVGID_2_');" transform="matrix(5.2150797843933105, 0, 0, 5.2150797843933105, -4.819404602050781, -8.172268867492676)"/><g transform="matrix(5.2150797843933105, 0, 0, 5.2150797843933105, -4.819404602050781, -8.172268867492676)" style="clip-path: url('#SVGID_2_');">
				<g>
					<text transform="matrix(1 0 0 1 270.5556 117.3465)" class="st10 st11 st12" style="white-space: pre;  fill: rgb(178, 95, 24);  font-family: ArialRoundedMTBold;  font-size: 15.1194px; ">T</text>
				</g>
			</g><g transform="matrix(5.2150797843933105, 0, 0, 5.2150797843933105, -4.819404602050781, -8.172268867492676)" style="clip-path: url('#SVGID_2_');">
					<text transform="matrix(1 0 0 1 279.0526 117.3465)" class="st10 st11 st12" style="white-space: pre;  fill: rgb(178, 95, 24);  font-family: ArialRoundedMTBold;  font-size: 15.1194px; ">o</text>
				</g><g transform="matrix(5.2150797843933105, 0, 0, 5.2150797843933105, -4.819404602050781, -8.172268867492676)" style="clip-path: url('#SVGID_2_');">
					<text transform="matrix(1 0 0 1 288.1855 117.3465)" class="st10 st11 st12" style="white-space: pre;  fill: rgb(178, 95, 24);  font-family: ArialRoundedMTBold;  font-size: 15.1194px; ">k</text>
				</g><g transform="matrix(5.2150797843933105, 0, 0, 5.2150797843933105, -4.819404602050781, -8.172268867492676)" style="clip-path: url('#SVGID_2_');">
					<text transform="matrix(1 0 0 1 296.4756 117.3465)" class="st10 st11 st12" style="white-space: pre;  fill: rgb(178, 95, 24);  font-family: ArialRoundedMTBold;  font-size: 15.1194px; ">y</text>
				</g><g transform="matrix(5.2150797843933105, 0, 0, 5.2150797843933105, -4.819404602050781, -8.172268867492676)" style="clip-path: url('#SVGID_2_');">
					<text transform="matrix(1 0 0 1 304.4717 117.3465)" class="st10 st11 st12" style="white-space: pre;  fill: rgb(178, 95, 24);  font-family: ArialRoundedMTBold;  font-size: 15.1194px; ">o</text>
				</g><g transform="matrix(5.2150797843933105, 0, 0, 5.2150797843933105, -4.819404602050781, -8.172268867492676)" style="clip-path: url('#SVGID_2_');">
				<g>
					<text transform="matrix(1 0 0 1 223.3406 83.6297)" class="st10 st11 st12" style="white-space: pre;  fill: rgb(178, 95, 24);  font-family: ArialRoundedMTBold;  font-size: 15.1194px; ">P</text>
				</g>
			</g><g transform="matrix(5.2150797843933105, 0, 0, 5.2150797843933105, -4.819404602050781, -8.172268867492676)" style="clip-path: url('#SVGID_2_');">
					<text transform="matrix(1 0 0 1 232.8495 83.6297)" class="st10 st11 st12" style="white-space: pre;  fill: rgb(178, 95, 24);  font-family: ArialRoundedMTBold;  font-size: 15.1194px; ">aris</text>
				</g><g transform="matrix(5.2150797843933105, 0, 0, 5.2150797843933105, -4.819404602050781, -8.172268867492676)" style="clip-path: url('#SVGID_2_');">
				<g>
					<text transform="matrix(1 0 0 1 263.204 49.9133)" class="st10 st11 st12" style="white-space: pre;  fill: rgb(178, 95, 24);  font-family: ArialRoundedMTBold;  font-size: 15.1194px; ">London</text>
				</g>
			</g><path d="M 262.70001220703125 197.5 L 327.79998779296875 253.39999389648438 L 350.1000061035156 252.39999389648438 L 272.29998779296875 197.5 Z" class="st13" style="opacity: 0.1; fill: rgb(18, 16, 11); clip-path: url('#SVGID_2_');" transform="matrix(5.2150797843933105, 0, 0, 5.2150797843933105, -4.819404602050781, -8.172268867492676)"/><g transform="matrix(5.2150797843933105, 0, 0, 5.2150797843933105, -4.819404602050781, -8.172268867492676)" style="clip-path: url('#SVGID_2_');">
			<path d="M 181.2 204.100006 A 3.7 3.7 0 0 1 177.5 207.800006 A 3.7 3.7 0 0 1 173.8 204.100006 A 3.7 3.7 0 0 1 177.5 200.400006 A 3.7 3.7 0 0 1 181.2 204.100006 Z" class="st14" style="fill: rgb(110, 54, 23);"/>
			<path d="M 232.800006 204.100006 A 3.7 3.7 0 0 1 229.100006 207.800006 A 3.7 3.7 0 0 1 225.400006 204.100006 A 3.7 3.7 0 0 1 229.100006 200.400006 A 3.7 3.7 0 0 1 232.800006 204.100006 Z" class="st14" style="fill: rgb(110, 54, 23);"/>
		</g><path class="st15" d="M212.8,126.9h-19c-1.6,0-2.9,1.3-2.9,2.9v30.7c0,1.6,1.3,2.9,2.9,2.9h19c1.6,0,2.9-1.3,2.9-2.9v-30.7&#10;&#9;&#9;&#9;C215.7,128.2,214.4,126.9,212.8,126.9z M212.8,158c0,1.3-1.1,2.4-2.4,2.4h-14.1c-1.3,0-2.4-1.1-2.4-2.4v-25.7&#10;&#9;&#9;&#9;c0-1.3,1.1-2.4,2.4-2.4h14.1c1.3,0,2.4,1.1,2.4,2.4V158z" style="fill: rgb(236, 110, 4); clip-path: url('#SVGID_2_');" transform="matrix(5.2150797843933105, 0, 0, 5.2150797843933105, -4.819404602050781, -8.172268867492676)"/><path class="st16" d="M212.8,136.7v5.5h3v-5.5H212.8z M190.9,142.3h3v-5.5h-3V142.3z" style="fill: rgb(201, 88, 23); clip-path: url('#SVGID_2_');" transform="matrix(5.2150797843933105, 0, 0, 5.2150797843933105, -4.819404602050781, -8.172268867492676)"/><path class="st15" d="M257.7,201.1c0,1.6-1.3,2.9-2.9,2.9h-103c-1.6,0-2.9-1.3-2.9-2.9v-59.8c0-1.6,1.3-2.9,2.9-2.9h103&#10;&#9;&#9;&#9;c1.6,0,2.9,1.3,2.9,2.9V201.1z" style="fill: rgb(236, 110, 4); clip-path: url('#SVGID_2_');" transform="matrix(5.2150797843933105, 0, 0, 5.2150797843933105, -4.819404602050781, -8.172268867492676)"/><g transform="matrix(5.2150797843933105, 0, 0, 5.2150797843933105, -4.819404602050781, -8.172268867492676)" style="clip-path: url('#SVGID_2_');">
				<path d="M 167.300003 137.100006 H 177.600003 V 204.200005 H 167.300003 V 137.100006 Z" class="st17" style="fill: rgb(152, 75, 23);"/>
				<path d="M 167.300003 158.699997 H 177.600003 V 162.299997 H 167.300003 V 158.699997 Z" class="st14" style="fill: rgb(110, 54, 23);"/>
				<path d="M 165.600006 157.5 H 179.400006 V 161.1 H 165.600006 V 157.5 Z" class="st17" style="fill: rgb(152, 75, 23);"/>
			</g><path d="M 228.899994 137.100006 H 239.199994 V 204.200005 H 228.899994 V 137.100006 Z" class="st17" style="fill: rgb(152, 75, 23); clip-path: url('#SVGID_2_');" transform="matrix(5.2150797843933105, 0, 0, 5.2150797843933105, -4.819404602050781, -8.172268867492676)"/><path d="M 228.899994 158.699997 H 239.199994 V 162.299997 H 228.899994 V 158.699997 Z" class="st14" style="fill: rgb(110, 54, 23); clip-path: url('#SVGID_2_');" transform="matrix(5.2150797843933105, 0, 0, 5.2150797843933105, -4.819404602050781, -8.172268867492676)"/><path d="M 227.199997 157.5 H 240.999997 V 161.1 H 227.199997 V 157.5 Z" class="st17" style="fill: rgb(152, 75, 23); clip-path: url('#SVGID_2_');" transform="matrix(5.2150797843933105, 0, 0, 5.2150797843933105, -4.819404602050781, -8.172268867492676)"/><path d="M 193.899994 125.800003 H 212.599995 V 131.900003 H 193.899994 V 125.800003 Z" class="st17" style="fill: rgb(152, 75, 23); clip-path: url('#SVGID_2_');" transform="matrix(5.2150797843933105, 0, 0, 5.2150797843933105, -4.819404602050781, -8.172268867492676)"/><path d="M 284.6000061035156 256.6000061035156 L 152.89999389648438 256.6000061035156 L 152.89999389648438 207.60000610351562 L 256.6000061035156 207.60000610351562 Z" class="st13" style="opacity: 0.1; fill: rgb(18, 16, 11); clip-path: url('#SVGID_2_');" transform="matrix(5.2150797843933105, 0, 0, 5.2150797843933105, -4.819404602050781, -8.172268867492676)"/><path d="M 184.600006 164.300003 H 196.500006 V 176.200003 H 184.600006 V 164.300003 Z" transform="matrix(4.668017864227295, -2.3254039287567134, 2.3254039287567134, 4.668017864227295, -296.53320312500006, 528.1141967773439)" class="st18" style="opacity: 0.15; fill: rgb(18, 16, 11); clip-path: url('#SVGID_2_');"/><path d="M 183.899994 164 H 195.799994 V 175.9 H 183.899994 V 164 Z" transform="matrix(4.668017864227295, -2.3254039287567134, 2.3254039287567134, 4.668017864227295, -296.1128845214845, 526.1522216796875)" class="st19" style="fill: rgb(255, 255, 255); clip-path: url('#SVGID_2_');"/><path d="M 184.600006 165.399994 H 194.000006 V 172.399994 H 184.600006 V 165.399994 Z" transform="matrix(4.668017864227295, -2.3248825073242188, 2.3248825073242188, 4.668017864227295, -293.8620300292969, 524.2560424804688)" class="st20" style="fill: rgb(109, 165, 217); clip-path: url('#SVGID_2_');"/><path d="M 206.899994 150 H 218.799994 V 161.9 H 206.899994 V 150 Z" transform="matrix(4.796308517456055, 2.0474402904510502, -2.0474402904510502, 4.796308517456055, 403.7189636230469, -378.7427978515625)" class="st18" style="opacity: 0.15; fill: rgb(18, 16, 11); clip-path: url('#SVGID_2_');"/><path d="M 206.699997 149.199997 H 218.599997 V 161.099997 H 206.699997 V 149.199997 Z" transform="matrix(4.796308517456055, 2.047961711883545, -2.047961711883545, 4.796308517456055, 402.0897521972656, -378.7104797363281)" class="st19" style="fill: rgb(255, 255, 255); clip-path: url('#SVGID_2_');"/><path d="M 208.399994 150.600006 H 217.799994 V 157.600006 H 208.399994 V 150.600006 Z" transform="matrix(4.796308517456055, 2.047961711883545, -2.047961711883545, 4.796308517456055, 399.9187316894531, -380.11486816406256)" class="st21" style="fill: rgb(227, 79, 59); clip-path: url('#SVGID_2_');"/><path d="M 195.800003 170.699997 H 207.700003 V 182.599997 H 195.800003 V 170.699997 Z" transform="matrix(5.200998306274413, 0.3817805647850036, -0.3817805647850036, 5.200998306274413, 65.45693969726561, -82.7150650024414)" class="st18" style="opacity: 0.15; fill: rgb(18, 16, 11); clip-path: url('#SVGID_2_');"/><path d="M 195.300003 170 H 207.200003 V 181.9 H 195.300003 V 170 Z" transform="matrix(5.200998306274414, 0.3817839026451111, -0.3817839026451111, 5.200998306274414, 65.18522644042969, -82.54608917236328)" class="st19" style="fill: rgb(255, 255, 255); clip-path: url('#SVGID_2_');"/><path d="M 196.600006 171.300003 H 206.000006 V 178.300003 H 196.600006 V 171.300003 Z" transform="matrix(5.200998306274415, 0.38114002346992504, -0.38114002346992504, 5.200998306274415, 64.60009384155275, -82.47620391845705)" class="st2" style="fill: rgb(252, 194, 0); clip-path: url('#SVGID_2_');"/><path class="st22" d="M27.6,142.8c7.7,42,24.8,74,38.1,71.5c13.3-2.4,17.9-38.4,10.2-80.4c-7.7-42-36.7-92.7-41.8-91.8&#10;&#9;&#9;&#9;C28.6,43.2,19.9,100.9,27.6,142.8z" style="fill: rgb(237, 117, 106); clip-path: url('#SVGID_2_');" transform="matrix(5.2150797843933105, 0, 0, 5.2150797843933105, -4.819404602050781, -8.172268867492676)"/><path class="st21" d="M34,42.2l31.8,172.1c0,0,0,0-0.1,0c-13.3,2.4-30.4-29.6-38.1-71.5C20,101.2,28.4,44,34,42.2z" style="fill: rgb(227, 79, 59); clip-path: url('#SVGID_2_');" transform="matrix(5.2150797843933105, 0, 0, 5.2150797843933105, -4.819404602050781, -8.172268867492676)"/><path class="st23" d="M48.4,215.9c0,0,10.2-13.1,37.2-10.9C71,222.6,52.4,224.5,48.4,215.9z" style="fill: rgb(253, 237, 179); clip-path: url('#SVGID_2_');" transform="matrix(5.2150797843933105, 0, 0, 5.2150797843933105, -4.819404602050781, -8.172268867492676)"/><path class="st13" d="M74.9,204.9c0,0-25.7,43.8-55.2,55.5c-29.5,11.8-42.2,3.1-42.2,3.1s31.2-33.4,78.2-53.3&#10;&#9;&#9;&#9;C65.1,205.1,74.9,204.9,74.9,204.9z" style="opacity: 0.1; fill: rgb(18, 16, 11); clip-path: url('#SVGID_2_');" transform="matrix(5.2150797843933105, 0, 0, 5.2150797843933105, -4.819404602050781, -8.172268867492676)"/><g transform="matrix(5.2150797843933105, 0, 0, 5.2150797843933105, -4.819404602050781, -8.172268867492676)" style="clip-path: url('#SVGID_2_');">
			<path d="M 103.599998 103.699997 H 105.599998 V 112.099997 H 103.599998 V 103.699997 Z" class="st24" style="fill: rgb(210, 151, 88);"/>
			<path d="M 118.099998 103.699997 H 120.099998 V 112.099997 H 118.099998 V 103.699997 Z" class="st24" style="fill: rgb(210, 151, 88);"/>
		</g><path d="M 103.599998 108.5 H 105.599998 V 112 H 103.599998 V 108.5 Z" class="st26" style="fill: rgb(18, 16, 11); opacity: 0.15; clip-path: url('#SVGID_2_');" transform="matrix(5.2150797843933105, 0, 0, 5.2150797843933105, -4.819404602050781, -8.172268867492676)"/><path d="M 118.099998 108.5 H 120.099998 V 112 H 118.099998 V 108.5 Z" class="st26" style="fill: rgb(18, 16, 11); opacity: 0.15; clip-path: url('#SVGID_2_');" transform="matrix(5.2150797843933105, 0, 0, 5.2150797843933105, -4.819404602050781, -8.172268867492676)"/><path d="M 102.5999984741211 204.60000610351562 L 98.0999984741211 204.60000610351562 L 95.69999694824219 200.10000610351562 L 102.5999984741211 200.10000610351562 Z" class="st27" style="fill: rgb(175, 96, 60); clip-path: url('#SVGID_2_');" transform="matrix(5.2150797843933105, 0, 0, 5.2150797843933105, -4.819404602050781, -8.172268867492676)"/><path d="M 121.0999984741211 204.60000610351562 L 125.69999694824219 204.60000610351562 L 128.10000610351562 200.10000610351562 L 121.0999984741211 200.10000610351562 Z" class="st27" style="fill: rgb(175, 96, 60); clip-path: url('#SVGID_2_');" transform="matrix(5.2150797843933105, 0, 0, 5.2150797843933105, -4.819404602050781, -8.172268867492676)"/><path class="st24" d="M138.5,193.9c0,4.7-3.8,8.5-8.5,8.5H93.7c-4.7,0-8.5-3.8-8.5-8.5v-75.8c0-4.7,3.8-8.5,8.5-8.5H130&#10;&#9;&#9;&#9;c4.7,0,8.5,3.8,8.5,8.5V193.9z" style="fill: rgb(210, 151, 88); clip-path: url('#SVGID_2_');" transform="matrix(5.2150797843933105, 0, 0, 5.2150797843933105, -4.819404602050781, -8.172268867492676)"/><path class="st27" d="M136.5,192.1c0,4.5-3.5,8.1-7.9,8.1H95.1c-4.4,0-7.9-3.6-7.9-8.1v-72.2c0-4.5,3.5-8.1,7.9-8.1h33.6&#10;&#9;&#9;&#9;c4.4,0,7.9,3.6,7.9,8.1V192.1z" style="fill: rgb(175, 96, 60); clip-path: url('#SVGID_2_');" transform="matrix(5.2150797843933105, 0, 0, 5.2150797843933105, -4.819404602050781, -8.172268867492676)"/><path class="st24" d="M135,190.5c0,4.3-3.3,7.8-7.4,7.8H96.1c-4.1,0-7.4-3.5-7.4-7.8v-69c0-4.3,3.3-7.8,7.4-7.8h31.5&#10;&#9;&#9;&#9;c4.1,0,7.4,3.5,7.4,7.8V190.5z" style="fill: rgb(210, 151, 88); clip-path: url('#SVGID_2_');" transform="matrix(5.2150797843933105, 0, 0, 5.2150797843933105, -4.819404602050781, -8.172268867492676)"/><path class="st27" d="M127,198.5c0,1.7-30.3,1.7-30.3,0v-27.7c0-1.7,2.2-3.1,4.8-3.1h20.6c2.7,0,4.8,1.4,4.8,3.1V198.5z" style="fill: rgb(175, 96, 60); clip-path: url('#SVGID_2_');" transform="matrix(5.2150797843933105, 0, 0, 5.2150797843933105, -4.819404602050781, -8.172268867492676)"/><path d="M 85.199997 131.899994 H 138.599998 V 135.399994 H 85.199997 V 131.899994 Z" class="st18" style="opacity: 0.15; fill: rgb(18, 16, 11); clip-path: url('#SVGID_2_');" transform="matrix(5.2150797843933105, 0, 0, 5.2150797843933105, -4.819404602050781, -8.172268867492676)"/><path d="M 85.199997 182.300003 H 138.599998 V 185.800003 H 85.199997 V 182.300003 Z" class="st18" style="opacity: 0.15; fill: rgb(18, 16, 11); clip-path: url('#SVGID_2_');" transform="matrix(5.2150797843933105, 0, 0, 5.2150797843933105, -4.819404602050781, -8.172268867492676)"/><path d="M 84.900002 130.699997 H 138.900002 V 134.199997 H 84.900002 V 130.699997 Z" class="st27" style="fill: rgb(175, 96, 60); clip-path: url('#SVGID_2_');" transform="matrix(5.2150797843933105, 0, 0, 5.2150797843933105, -4.819404602050781, -8.172268867492676)"/><path d="M 84.900002 181.100006 H 138.900002 V 184.600006 H 84.900002 V 181.100006 Z" class="st27" style="fill: rgb(175, 96, 60); clip-path: url('#SVGID_2_');" transform="matrix(5.2150797843933105, 0, 0, 5.2150797843933105, -4.819404602050781, -8.172268867492676)"/><path class="st27" d="M121.7,135.7c0,1.6-1.3,2.9-2.9,2.9h-14c-1.6,0-2.9-1.3-2.9-2.9v-5.1c0-1.6,1.3-2.9,2.9-2.9h14&#10;&#9;&#9;&#9;c1.6,0,2.9,1.3,2.9,2.9V135.7z" style="fill: rgb(175, 96, 60); clip-path: url('#SVGID_2_');" transform="matrix(5.2150797843933105, 0, 0, 5.2150797843933105, -4.819404602050781, -8.172268867492676)"/><path class="st27" d="M106.1,105.1v-4.3c0-0.9,0.8-1.7,1.7-1.7h8.2c0.9,0,1.7,0.8,1.7,1.7v4.3h2.9v-6.3c0-1.4-1.2-2.6-2.6-2.6&#10;&#9;&#9;&#9;h-12.2c-1.4,0-2.6,1.2-2.6,2.6v6.3H106.1z" style="fill: rgb(175, 96, 60); clip-path: url('#SVGID_2_');" transform="matrix(5.2150797843933105, 0, 0, 5.2150797843933105, -4.819404602050781, -8.172268867492676)"/><path d="M 130.89999389648438 264.29998779296875 L 50.70000076293945 264.29998779296875 L 87.80000305175781 204.5 L 136.60000610351562 204.5 Z" class="st13" style="opacity: 0.1; fill: rgb(18, 16, 11); clip-path: url('#SVGID_2_');" transform="matrix(5.2150797843933105, 0, 0, 5.2150797843933105, -4.819404602050781, -8.172268867492676)"/><path d="M 143.300003 108.400002 A 48.5 7.7 0 0 1 94.800003 116.100001 A 48.5 7.7 0 0 1 46.300003 108.400002 A 48.5 7.7 0 0 1 94.800003 100.700002 A 48.5 7.7 0 0 1 143.300003 108.400002 Z" transform="matrix(4.015610694885254, -3.3277423381805424, 3.3277423381805424, 4.015610694885254, -251.9755859375, 437.2319641113281)" class="st28" style="fill: rgb(220, 173, 90); clip-path: url('#SVGID_2_');"/><path class="st29" d="M80.2,119.1c0,0-13.9-14.8,0.4-27.5c13.9-12.3,26.3,5.4,26.3,5.4S98.3,110.6,80.2,119.1z" style="fill: rgb(236, 197, 120); clip-path: url('#SVGID_2_');" transform="matrix(5.2150797843933105, 0, 0, 5.2150797843933105, -4.819404602050781, -8.172268867492676)"/><path class="st21" d="M106.9,97c0,0-0.6-0.9-1.7-2.1c-12.1,14.6-24.5,20.9-26.8,21.9c1,1.4,1.8,2.3,1.8,2.3&#10;&#9;&#9;&#9;C98.3,110.6,106.9,97,106.9,97z" style="fill: rgb(227, 79, 59); clip-path: url('#SVGID_2_');" transform="matrix(5.2150797843933105, 0, 0, 5.2150797843933105, -4.819404602050781, -8.172268867492676)"/><path class="st13" d="M298.1,207.7l61.4,28l22.8-19.2L365,199C365,199,296.9,201.7,298.1,207.7z" style="opacity: 0.1; fill: rgb(18, 16, 11); clip-path: url('#SVGID_2_');" transform="matrix(5.2150797843933105, 0, 0, 5.2150797843933105, -4.819404602050781, -8.172268867492676)"/><path class="st19" d="M316.1,132.4c-22,0-39.8,17.8-39.8,39.8c0,22,17.8,39.8,39.8,39.8c22,0,39.8-17.8,39.8-39.8&#10;&#9;&#9;&#9;C355.9,150.2,338.1,132.4,316.1,132.4z M316.1,192.3c-11.1,0-20.1-9-20.1-20.1c0-11.1,9-20.1,20.1-20.1c11.1,0,20.1,9,20.1,20.1&#10;&#9;&#9;&#9;C336.2,183.3,327.2,192.3,316.1,192.3z" style="fill: rgb(255, 255, 255); clip-path: url('#SVGID_2_');" transform="matrix(5.2150797843933105, 0, 0, 5.2150797843933105, -4.819404602050781, -8.172268867492676)"/><path class="st21" d="M295.9,172.2c0-3.7,1-7.1,2.7-10.1l-17-9.8c-3.4,5.9-5.3,12.6-5.3,19.9c0,7.3,1.9,14.1,5.3,19.9l17-9.8&#10;&#9;&#9;&#9;C296.9,179.3,295.9,175.8,295.9,172.2z M350.5,152.3l-17,9.8c1.7,3,2.7,6.4,2.7,10.1c0,3.7-1,7.1-2.7,10.1l17,9.8&#10;&#9;&#9;&#9;c3.4-5.9,5.3-12.7,5.3-19.9C355.9,164.9,353.9,158.1,350.5,152.3z M316.1,192.3c-3.7,0-7.1-1-10.1-2.7l-9.8,17&#10;&#9;&#9;&#9;c5.9,3.4,12.6,5.3,19.9,5.3c7.2,0,14-1.9,19.9-5.3l-9.8-17C323.2,191.3,319.8,192.3,316.1,192.3z M316.1,152c3.7,0,7.1,1,10.1,2.7&#10;&#9;&#9;&#9;l9.8-17c-5.9-3.4-12.7-5.3-19.9-5.3c-7.3,0-14.1,1.9-19.9,5.3l9.8,17C309,153,312.4,152,316.1,152z" style="fill: rgb(227, 79, 59); clip-path: url('#SVGID_2_');" transform="matrix(5.2150797843933105, 0, 0, 5.2150797843933105, -4.819404602050781, -8.172268867492676)"/><g class="st30" transform="matrix(5.2150797843933105, 0, 0, 5.2150797843933105, -4.819404602050781, -8.172268867492676)" style="opacity: 0.1; clip-path: url('#SVGID_2_');">
			<path class="st26" d="M32.3,212.9c0,0-40.7,16.8-41.2,16.8c-0.5,0,0.6-12.4,0.6-12.4l26.5-7.8" style="fill: rgb(18, 16, 11);"/>
		</g><path d="M 41.5 197.300003 A 17.799999 17.799999 0 0 1 23.700001 215.100002 A 17.799999 17.799999 0 0 1 5.900002 197.300003 A 17.799999 17.799999 0 0 1 23.700001 179.500004 A 17.799999 17.799999 0 0 1 41.5 197.300003 Z" class="st19" style="fill: rgb(255, 255, 255); clip-path: url('#SVGID_2_');" transform="matrix(5.2150797843933105, 0, 0, 5.2150797843933105, -4.819404602050781, -8.172268867492676)"/><path d="M 17.200000762939453 196.60000610351562 L 22.200000762939453 190.60000610351562 L 29.600000381469727 193.39999389648438 L 28.899999618530273 201.10000610351562 L 21.5 203.10000610351562 Z" class="st31" style="fill: rgb(131, 86, 25); clip-path: url('#SVGID_2_');" transform="matrix(5.2150797843933105, 0, 0, 5.2150797843933105, -4.819404602050781, -8.172268867492676)"/><path class="st31" d="M9.6,190.7l-2.8,1.1c-0.9,2.8-1.2,5.8-0.6,8.8c0.9,0.7,2.3,1.7,2.3,1.7l2.2-5.9L9.6,190.7z M12.8,208.9&#10;&#9;&#9;&#9;&#9;l0.8,3.1c2.4,1.6,5.2,2.7,8.1,3l2-1.8l-4.8-3.9L12.8,208.9z M24.5,179.5c-2-0.1-4,0.1-5.9,0.7c-1.3,0.4-2.5,0.9-3.6,1.5l-0.5,2.5&#10;&#9;&#9;&#9;&#9;l5.8,0l5.2-3.3L24.5,179.5z M34,205.4l-2.1,5.5c0,0,1.6,0.3,2.9,0.4c2.5-2,4.4-4.6,5.5-7.5c-0.5-1-1.1-2-1.1-2L34,205.4z&#10;&#9;&#9;&#9;&#9; M35.8,184.3c-1.4-0.1-2.9-0.1-2.9-0.1s1.8,2.1,2.1,5.5l4.3,3.5c0,0,0.8-1.3,1.1-2.2C39.4,188.4,37.8,186.1,35.8,184.3z" style="fill: rgb(131, 86, 25); clip-path: url('#SVGID_2_');" transform="matrix(5.2150797843933105, 0, 0, 5.2150797843933105, -4.819404602050781, -8.172268867492676)"/><g transform="matrix(5.2150797843933105, 0, 0, 5.2150797843933105, -4.819404602050781, -8.172268867492676)" style="clip-path: url('#SVGID_2_');">
				
					<path d="M 17.4 187.300003 H 25.2 V 188.000003 H 17.4 V 187.300003 Z" transform="matrix(0.2857 0.9583 -0.9583 0.2857 195.1071 113.6007)" class="st31" style="fill: rgb(131, 86, 25);"/>
			</g><path d="M 10.3 196.199997 H 18.6 V 196.899997 H 10.3 V 196.199997 Z" transform="matrix(5.203085422515869, 0.35424891114234924, -0.35424891114234924, 5.203085422515869, 65.00268936157227, -10.910728454589844)" class="st31" style="fill: rgb(131, 86, 25); clip-path: url('#SVGID_2_');"/><path d="M 30.799999 187.199997 H 31.499999 V 197.199997 H 30.799999 V 187.199997 Z" transform="matrix(2.983546733856201, 4.277408123016357, -4.277408123016357, 2.983546733856201, 887.1541748046875, 287.4966125488282)" class="st31" style="fill: rgb(131, 86, 25); clip-path: url('#SVGID_2_');"/><path d="M 26.5 202.600006 H 36.2 V 203.300006 H 26.5 V 202.600006 Z" transform="matrix(3.9264330863952637, 3.432044267654419, -3.432044267654419, 3.9264330863952637, 732.1531982421875, 145.66319274902347)" class="st31" style="fill: rgb(131, 86, 25); clip-path: url('#SVGID_2_');"/><path d="M 19.9 201.399994 H 20.6 V 211.299994 H 19.9 V 201.399994 Z" transform="matrix(4.856281280517578, 1.9014182090759277, -1.9014182090759277, 4.856281280517578, 394.8089904785157, 27.459753036499023)" class="st31" style="fill: rgb(131, 86, 25); clip-path: url('#SVGID_2_');"/><path class="st31" d="M13.2,209.8c-0.2-0.1-3.9-3.2-5.4-8.8l0.7-0.2c1.4,5.4,5.1,8.4,5.2,8.4L13.2,209.8z" style="fill: rgb(131, 86, 25); clip-path: url('#SVGID_2_');" transform="matrix(5.2150797843933105, 0, 0, 5.2150797843933105, -4.819404602050781, -8.172268867492676)"/><path class="st31" d="M9.3,192l-0.7-0.2c0.1-0.3,2.5-7.2,8.5-9.2l0.2,0.7C11.7,185.2,9.3,192,9.3,192z" style="fill: rgb(131, 86, 25); clip-path: url('#SVGID_2_');" transform="matrix(5.2150797843933105, 0, 0, 5.2150797843933105, -4.819404602050781, -8.172268867492676)"/><path class="st31" d="M33.8,185.5c-3.8-3.7-9.7-4.3-9.7-4.3l0.1-0.7c0.3,0,6.2,0.7,10.2,4.5L33.8,185.5z" style="fill: rgb(131, 86, 25); clip-path: url('#SVGID_2_');" transform="matrix(5.2150797843933105, 0, 0, 5.2150797843933105, -4.819404602050781, -8.172268867492676)"/><path class="st31" d="M38.8,203.8l-0.6-0.3c2.6-4.9,0.6-10.7,0.6-10.8l0.7-0.2C39.5,192.7,41.5,198.6,38.8,203.8z" style="fill: rgb(131, 86, 25); clip-path: url('#SVGID_2_');" transform="matrix(5.2150797843933105, 0, 0, 5.2150797843933105, -4.819404602050781, -8.172268867492676)"/><path class="st31" d="M21.9,213.8l0-0.7c0.1,0,7.4-0.3,11.8-3.5l0.4,0.6C29.5,213.5,22.2,213.8,21.9,213.8z" style="fill: rgb(131, 86, 25); clip-path: url('#SVGID_2_');" transform="matrix(5.2150797843933105, 0, 0, 5.2150797843933105, -4.819404602050781, -8.172268867492676)"/>
</svg>