 <svg version="1.0" xmlns="http://www.w3.org/2000/svg" width="700.000000pt" height="971.000000pt" viewBox="0 0 700.000000 971.000000" preserveAspectRatio="xMidYMid meet">
<metadata>
Created by potrace 1.12, written by Peter Selinger 2001-2015
</metadata>
<g transform="translate(0.000000,971.000000) scale(0.100000,-0.100000)" fill="#000000" stroke="none">
<path d="M3395 9470 c-3 -5 3 -10 14 -10 12 0 21 5 21 10 0 6 -6 10 -14 10 -8
0 -18 -4 -21 -10z"></path>
<path d="M3281 9456 c-6 -7 -21 -11 -34 -9 -14 3 -29 -3 -41 -16 -11 -12 -30
-21 -43 -21 -25 0 -49 -41 -38 -68 3 -8 -14 -31 -44 -58 -67 -61 -87 -107 -95
-230 -6 -84 -4 -103 9 -114 20 -16 19 -49 -1 -71 -14 -15 -14 -21 -2 -46 19
-39 32 -31 39 24 4 26 11 72 18 102 13 65 15 163 2 177 -5 5 -7 21 -4 37 4 19
11 27 26 27 32 0 87 23 87 36 0 13 73 29 89 20 5 -4 57 -13 114 -21 58 -8 117
-19 131 -25 14 -5 39 -7 56 -4 23 5 37 0 69 -25 39 -31 61 -39 61 -22 0 11
-48 44 -75 51 -11 3 -26 18 -33 33 -9 18 -21 27 -38 27 -13 0 -24 5 -24 10 0
15 -33 12 -57 -5 -15 -11 -34 -13 -60 -9 -21 3 -56 7 -78 8 -30 1 -39 5 -36
16 1 8 5 41 8 73 6 54 14 69 28 47 3 -5 11 -10 16 -10 12 0 39 61 33 72 -8 13
-71 9 -83 -6z m-251 -456 c0 -5 -4 -10 -10 -10 -5 0 -10 5 -10 10 0 6 5 10 10
10 6 0 10 -4 10 -10z"></path>
<path d="M3445 9460 c-3 -5 -3 -10 1 -10 4 0 0 -8 -8 -17 -26 -29 -58 -102
-49 -107 5 -4 33 21 63 55 l53 60 55 -27 c34 -17 85 -58 133 -107 74 -76 111
-98 71 -41 -11 15 -24 35 -30 46 -32 54 -100 106 -169 128 -22 7 -44 16 -49
21 -13 12 -63 11 -71 -1z"></path>
<path d="M3535 9350 c-3 -5 -15 -10 -26 -10 -10 0 -19 -4 -19 -10 0 -5 9 -10
21 -10 25 0 59 17 59 30 0 13 -27 13 -35 0z"></path>
<path d="M3650 9225 c0 -3 18 -17 40 -31 23 -15 39 -33 36 -40 -3 -7 2 -18 10
-24 8 -7 14 -20 14 -30 0 -9 18 -31 40 -49 l40 -32 0 27 c0 38 -39 111 -69
131 -56 37 -111 61 -111 48z"></path>
<path d="M3758 9024 c-3 -3 -1 -22 4 -42 6 -20 13 -67 17 -104 7 -75 20 -98
41 -73 11 13 11 27 2 74 -7 31 -12 74 -12 94 0 26 -6 39 -19 47 -23 12 -26 12
-33 4z"></path>
<path d="M3113 8883 c-7 -2 -13 -11 -13 -19 0 -16 26 -19 35 -4 9 15 52 12 88
-7 l32 -17 -57 -10 c-75 -14 -90 -29 -60 -59 l23 -22 5 23 c7 26 24 30 24 4 0
-10 5 -23 12 -30 14 -14 88 -16 88 -2 0 6 -9 10 -19 10 -11 0 -22 4 -25 9 -9
13 4 41 18 41 7 0 21 6 32 14 18 14 18 16 2 33 -32 31 -143 53 -185 36z"></path>
<path d="M3552 8874 c-45 -20 -50 -40 -17 -65 14 -12 31 -32 35 -45 5 -13 15
-24 22 -24 23 0 92 28 96 38 6 20 -50 52 -91 52 l-40 0 26 20 c14 11 37 20 51
20 14 0 26 5 26 10 0 15 -70 11 -108 -6z"></path>
<path d="M2920 8811 c0 -24 6 -44 17 -52 15 -13 16 -11 10 11 -4 14 -7 37 -7
53 0 15 -4 27 -10 27 -5 0 -10 -17 -10 -39z"></path>
<path d="M3870 8785 c0 -25 14 -34 24 -16 8 12 -3 41 -15 41 -5 0 -9 -11 -9
-25z"></path>
<path d="M2977 8703 c-4 -3 -7 -17 -7 -30 0 -16 6 -23 20 -23 11 0 20 -5 20
-12 0 -8 3 -9 10 -2 7 7 5 21 -6 42 -15 32 -25 38 -37 25z"></path>
<path d="M3847 8703 c-4 -3 -4 -17 -1 -30 5 -18 -2 -31 -30 -58 -35 -33 -46
-55 -27 -55 20 0 81 84 81 111 0 28 -12 44 -23 32z"></path>
<path d="M2996 8611 c-3 -4 6 -18 19 -31 23 -21 25 -22 31 -5 10 25 -36 59
-50 36z"></path>
<path d="M3345 8531 c-7 -12 12 -24 25 -16 11 7 4 25 -10 25 -5 0 -11 -4 -15
-9z"></path>
<path d="M3440 8525 c0 -10 7 -15 18 -13 21 4 19 22 -2 26 -10 2 -16 -3 -16
-13z"></path>
<path d="M3707 8482 c-3 -27 -17 -74 -31 -106 -29 -65 -29 -66 -18 -66 7 0 41
61 61 113 13 33 15 107 2 107 -4 0 -11 -22 -14 -48z"></path>
<path d="M3100 8458 c0 -23 34 -108 43 -108 5 0 7 6 5 13 -2 6 -10 33 -18 60
-13 44 -30 63 -30 35z"></path>
<path d="M3255 8420 c-9 -14 55 -50 91 -50 16 0 34 -4 40 -10 5 -5 24 -6 47
-1 21 5 46 7 56 4 24 -6 94 24 89 38 -3 8 -45 13 -128 15 -69 2 -139 6 -157 9
-17 3 -34 1 -38 -5z"></path>
<path d="M3130 8230 c0 -40 4 -70 10 -70 6 0 10 30 10 70 0 40 -4 70 -10 70
-6 0 -10 -30 -10 -70z"></path>
<path d="M3640 8185 c0 -37 4 -65 10 -65 6 0 10 28 10 65 0 37 -4 65 -10 65
-6 0 -10 -28 -10 -65z"></path>
<path d="M3115 8125 c-5 -11 -30 -46 -58 -78 -47 -56 -59 -90 -17 -52 32 29
92 124 87 138 -3 7 -8 4 -12 -8z"></path>
<path d="M3650 8095 c0 -22 66 -119 117 -170 l62 -63 -4 -143 c-3 -79 -9 -184
-15 -234 -30 -246 -41 -279 -105 -332 -40 -33 -169 -81 -230 -85 -38 -3 -40
-5 -46 -43 -5 -29 1 -72 22 -153 16 -62 29 -128 29 -146 0 -41 17 -93 43 -127
28 -39 113 -57 299 -63 l158 -6 21 29 c15 20 27 27 41 23 17 -4 19 -1 14 16
-4 13 -1 34 7 49 36 70 67 193 67 268 0 28 4 55 9 60 5 6 11 23 13 40 3 26 7
30 36 31 27 1 33 -2 38 -25 14 -62 49 -168 65 -196 10 -16 26 -46 36 -65 22
-46 95 -157 127 -195 22 -25 26 -27 32 -12 4 12 -12 44 -48 100 -85 127 -134
219 -163 304 -15 43 -33 83 -40 89 -15 11 -33 77 -37 134 -3 31 -6 36 -37 40
-41 6 -41 6 -85 150 -42 139 -66 259 -66 330 0 49 -3 56 -44 96 -24 24 -53 44
-64 44 -12 0 -32 15 -48 35 -14 19 -34 35 -43 35 -19 1 -121 126 -134 164 -7
22 -27 37 -27 21z"></path>
<path d="M2940 7945 c-21 -22 -43 -35 -59 -35 -38 0 -112 -83 -133 -150 -10
-30 -25 -77 -33 -105 -23 -73 -174 -375 -191 -382 -8 -3 -21 0 -29 7 -24 20
-40 -2 -69 -90 -23 -72 -68 -173 -106 -240 -63 -109 -147 -238 -193 -293 -27
-33 -37 -51 -30 -58 34 -34 304 377 322 490 5 27 12 37 29 39 15 2 22 -2 23
-15 1 -10 5 -81 9 -158 12 -198 23 -244 67 -280 17 -14 28 -65 14 -65 -6 0
-11 5 -11 10 0 6 -4 10 -10 10 -5 0 -10 -16 -10 -35 l0 -36 203 4 c111 2 216
8 234 12 40 9 80 59 97 123 8 26 26 92 41 147 15 55 36 117 47 138 26 51 21
89 -12 94 -48 7 -152 44 -191 69 -93 58 -101 142 -42 454 9 47 26 139 38 205
12 66 27 130 33 142 25 46 7 45 -38 -2z"></path>
<path d="M2455 7804 c-116 -42 -143 -63 -226 -179 -77 -106 -97 -144 -140
-267 -51 -147 -70 -184 -151 -293 -37 -49 -75 -104 -83 -122 -9 -18 -19 -34
-24 -37 -5 -3 -41 -86 -81 -183 -39 -98 -76 -187 -81 -198 -26 -61 -37 -145
-19 -145 6 0 10 13 10 28 0 37 24 107 112 322 69 169 101 224 204 355 48 62
94 157 134 280 28 87 47 124 114 227 102 158 188 208 358 208 52 0 88 4 88 10
0 15 -169 11 -215 -6z"></path>
<path d="M4160 7700 c0 -5 5 -10 10 -10 6 0 10 5 10 10 0 6 -4 10 -10 10 -5 0
-10 -4 -10 -10z"></path>
<path d="M4210 7690 c0 -5 9 -10 19 -10 35 0 137 -68 190 -125 69 -77 134
-212 171 -359 35 -134 31 -126 117 -265 98 -156 113 -192 180 -441 33 -125 44
-307 19 -345 l-16 -25 -178 0 c-216 0 -416 23 -582 65 -107 27 -123 29 -118
14 4 -13 33 -23 118 -39 240 -45 362 -59 571 -66 l195 -7 22 31 c19 26 22 43
21 124 0 103 -29 271 -57 338 -6 14 -16 48 -23 75 -18 75 -70 182 -139 289
-61 95 -100 178 -100 216 0 37 -68 225 -107 294 -56 101 -121 168 -204 210
-72 37 -99 44 -99 26z"></path>
<path d="M3307 7418 c-5 -39 1 -60 17 -55 18 6 20 87 3 87 -9 0 -17 -13 -20
-32z"></path>
<path d="M3310 7260 c0 -5 5 -10 10 -10 6 0 10 5 10 10 0 6 -4 10 -10 10 -5 0
-10 -4 -10 -10z"></path>
<path d="M3270 7045 c0 -8 5 -15 10 -15 6 0 10 7 10 15 0 8 -4 15 -10 15 -5 0
-10 -7 -10 -15z"></path>
<path d="M3269 6988 c0 -1 -2 -111 -5 -243 -6 -301 -9 -310 -124 -367 -53 -27
-112 -45 -200 -63 -124 -25 -145 -30 -250 -58 -107 -30 -110 -31 -104 -74 3
-21 10 -51 14 -66 20 -61 23 -173 7 -223 -25 -79 -29 -103 -38 -224 -12 -156
-19 -213 -30 -225 -13 -13 -11 -42 3 -65 15 -23 4 -38 -15 -22 -29 24 -37 -20
-10 -50 14 -16 15 -27 5 -86 -10 -61 -23 -238 -27 -387 -4 -116 -17 -197 -57
-335 -15 -53 6 -328 31 -410 6 -19 11 -54 11 -77 0 -24 4 -62 10 -85 20 -88
40 -165 56 -218 9 -30 18 -66 21 -80 2 -14 8 -34 13 -45 4 -11 20 -60 35 -110
15 -49 31 -99 35 -110 23 -64 40 -123 40 -143 0 -12 5 -31 10 -42 6 -11 15
-30 21 -42 24 -47 42 -155 55 -333 3 -44 10 -84 15 -90 5 -5 9 -21 9 -36 0
-15 5 -31 11 -35 7 -4 8 -20 4 -43 -4 -20 -9 -74 -11 -121 -5 -84 -4 -86 27
-123 59 -72 193 -116 304 -102 43 6 57 14 103 61 l52 54 0 99 c0 56 4 103 10
106 6 3 10 26 10 50 0 24 11 74 24 111 19 51 22 72 14 89 -7 16 -7 29 1 44 10
17 9 21 -5 21 -27 0 -70 31 -89 63 -10 17 -22 63 -26 102 -4 38 -14 90 -24
115 -12 31 -18 85 -21 175 -5 142 -24 267 -49 330 -9 22 -39 87 -68 144 -42
84 -52 115 -55 167 -6 87 3 127 37 163 27 28 34 31 94 31 59 0 147 -19 189
-41 13 -6 21 -3 33 13 8 13 15 28 15 34 0 21 68 73 138 105 71 34 150 43 194
23 12 -6 52 -24 88 -40 68 -29 400 -242 400 -256 0 -12 -48 -10 -73 4 -26 14
-84 25 -192 38 -44 5 -114 14 -155 19 -41 6 -102 10 -135 11 -53 0 -58 -2 -44
-15 11 -11 43 -16 115 -19 54 -2 106 -7 114 -10 9 -4 54 -11 100 -16 47 -5
110 -14 140 -19 30 -6 86 -15 125 -21 247 -36 513 -178 713 -381 l73 -74 -6
-81 c-5 -56 -4 -84 4 -88 6 -4 11 -15 11 -25 0 -18 49 -71 66 -71 5 0 29 -16
53 -35 l44 -35 161 0 c159 0 184 4 272 42 37 16 82 54 110 94 26 36 64 113 64
129 0 7 7 26 16 44 19 38 10 92 -29 181 -21 47 -166 247 -232 320 -17 19 -44
53 -60 75 -16 22 -72 84 -125 139 -199 206 -467 409 -756 572 -141 80 -324
239 -324 281 0 19 -24 48 -39 48 -3 0 -5 2 -4 5 1 3 4 12 7 20 3 8 -4 31 -16
50 -12 19 -23 51 -24 70 -1 19 -7 55 -13 80 -6 25 -15 77 -21 117 -5 40 -14
80 -19 90 -6 10 -17 36 -27 58 -29 72 -38 90 -61 121 -19 26 -24 46 -26 120
-3 100 -18 142 -60 162 -33 16 -34 22 -2 52 29 28 31 37 8 62 -13 14 -14 21
-5 30 33 33 15 42 -206 106 -119 34 -224 62 -232 62 -8 0 -52 18 -98 40 -126
61 -123 51 -121 360 1 181 -2 255 -10 258 -6 2 -11 2 -12 0z m-729 -1983 c0
-8 -4 -15 -10 -15 -5 0 -10 7 -10 15 0 8 5 15 10 15 6 0 10 -7 10 -15z"></path>
<path d="M1950 6640 c0 -5 7 -10 15 -10 8 0 15 5 15 10 0 6 -7 10 -15 10 -8 0
-15 -4 -15 -10z"></path>
<path d="M2160 6573 c0 -11 129 -28 138 -18 10 10 -4 14 -71 21 -43 4 -67 3
-67 -3z"></path>
<path d="M2320 6553 c0 -10 150 -26 159 -17 12 11 -17 19 -85 22 -43 3 -74 0
-74 -5z"></path>
<path d="M4210 6523 c-119 -3 -160 -8 -160 -21 0 -4 39 -6 87 -4 175 5 293 14
293 23 0 5 -24 8 -52 7 -29 -1 -105 -4 -168 -5z"></path>
<path d="M1630 6295 c0 -73 12 -108 45 -125 34 -18 547 -7 680 15 55 9 117 19
138 22 20 3 37 10 37 15 0 11 -1 11 -180 -18 -144 -24 -654 -24 -678 -1 -9 10
-16 42 -20 86 -6 89 -22 93 -22 6z"></path>
<path d="M3382 4119 c6 -18 114 -42 156 -34 54 10 36 23 -40 28 -40 2 -84 8
-97 12 -18 6 -23 5 -19 -6z"></path>
<path d="M3590 3693 c-74 -36 -160 -127 -160 -168 0 -16 -8 -52 -19 -80 -10
-27 -22 -75 -25 -105 -4 -30 -11 -64 -15 -75 -30 -75 -38 -128 -37 -221 1 -68
6 -107 15 -118 17 -21 35 -10 26 18 -14 45 -15 201 -1 241 19 57 36 131 36
160 0 13 5 27 10 30 6 3 10 21 10 40 0 19 5 37 10 40 6 3 10 16 10 28 0 12 7
35 15 51 8 15 15 34 15 41 0 17 63 66 121 93 87 42 298 26 544 -40 95 -25 165
-51 278 -102 32 -14 60 -26 63 -26 3 0 40 -16 82 -36 42 -20 86 -40 97 -44 73
-28 113 -43 130 -51 61 -24 147 -50 153 -45 8 9 -29 35 -50 36 -16 0 -67 19
-110 41 -10 5 -22 9 -28 9 -5 0 -35 12 -67 26 -71 32 -82 37 -268 114 -154 64
-183 74 -320 110 -120 31 -228 48 -350 55 -106 5 -112 5 -165 -22z"></path>
<path d="M3300 2333 c0 -5 12 -48 26 -98 37 -133 46 -241 53 -655 8 -411 7
-404 76 -556 19 -41 39 -74 44 -74 15 0 14 7 -10 59 -36 79 -38 84 -65 166
l-26 80 7 280 c4 183 2 308 -5 360 -6 44 -15 121 -20 170 -4 50 -11 101 -15
115 -22 85 -49 160 -56 160 -5 0 -9 -3 -9 -7z"></path>
<path d="M2780 2279 c0 -116 61 -365 126 -516 45 -106 76 -176 102 -233 14
-29 17 -31 20 -15 1 11 -27 92 -63 180 -107 260 -155 430 -155 550 0 29 -3 60
-6 69 -12 32 -24 15 -24 -35z"></path>
<path d="M3040 1469 c0 -7 6 -20 14 -28 15 -18 96 -255 96 -283 0 -10 4 -26 9
-36 14 -28 33 -85 40 -120 3 -18 11 -33 16 -32 27 1 -9 153 -93 395 -32 90
-43 111 -61 113 -12 2 -21 -2 -21 -9z"></path>
<path d="M6595 1288 c-106 -24 -128 -28 -163 -28 -20 0 -53 -5 -72 -10 -19 -6
-82 -15 -140 -21 -58 -6 -139 -15 -180 -19 -41 -5 -122 -13 -180 -19 -58 -5
-163 -17 -235 -27 -71 -9 -170 -20 -220 -25 -49 -4 -135 -12 -190 -18 -55 -5
-165 -15 -245 -21 -80 -6 -154 -13 -165 -16 -11 -3 -74 -10 -140 -15 -198 -16
-303 -27 -440 -44 -71 -9 -184 -21 -250 -26 -182 -15 -304 -26 -366 -34 l-55
-7 3 -67 c13 -227 13 -284 -2 -341 -12 -48 -13 -72 -4 -137 13 -86 13 -90 11
-150 -2 -38 -5 -42 -38 -53 -34 -11 -68 -10 -121 6 -18 5 -25 1 -34 -20 -15
-32 -51 -34 -94 -6 -22 14 -32 16 -42 8 -15 -12 -63 4 -63 22 0 5 -7 10 -15
10 -19 0 -57 21 -68 37 -4 6 -23 21 -42 33 -19 12 -35 28 -35 36 0 30 44 106
66 115 13 4 24 15 24 23 0 8 20 32 45 53 25 20 45 41 45 46 0 4 11 33 25 63
27 59 31 79 15 89 -5 3 -10 30 -10 60 0 30 -5 57 -11 60 -6 5 -8 22 -4 47 l7
40 -43 -6 c-24 -4 -114 -11 -199 -16 -85 -4 -193 -16 -240 -25 -81 -17 -117
-21 -400 -43 -235 -19 -365 -33 -380 -39 -8 -4 -62 -10 -120 -15 -158 -11
-316 -25 -510 -43 -96 -9 -224 -20 -285 -26 -60 -5 -155 -13 -210 -18 -55 -5
-156 -14 -225 -20 -69 -6 -143 -13 -165 -17 -22 -3 -101 -10 -175 -15 -74 -5
-163 -12 -197 -15 l-63 -6 0 -314 0 -314 2869 0 c1903 0 2872 3 2876 10 3 6
21 10 38 10 18 0 82 7 142 16 165 23 231 32 330 44 50 6 116 16 147 21 32 5
93 15 135 20 43 6 105 14 138 19 33 4 100 13 149 19 49 6 109 17 133 23 l43
10 0 519 c0 286 -1 519 -3 519 -1 0 -30 10 -62 21 -129 46 -247 59 -340 37z"></path>
<path d="M3240 845 c0 -18 48 -31 62 -17 8 8 4 14 -16 22 -37 14 -46 13 -46
-5z"></path>
<path d="M3080 310 c0 -11 5 -20 10 -20 6 0 10 9 10 20 0 11 -4 20 -10 20 -5
0 -10 -9 -10 -20z"></path>
<path d="M3170 285 c0 -16 6 -25 15 -25 9 0 15 9 15 25 0 16 -6 25 -15 25 -9
0 -15 -9 -15 -25z"></path>
<path d="M3264 287 c-7 -20 -2 -47 11 -50 14 -3 19 43 6 56 -7 7 -12 6 -17 -6z"></path>
<path d="M3369 269 c-16 -32 4 -47 25 -18 20 29 20 39 1 39 -8 0 -19 -9 -26
-21z"></path>
<path d="M3215 231 c-7 -12 12 -24 25 -16 11 7 4 25 -10 25 -5 0 -11 -4 -15
-9z"></path>
</g>
</svg>