 <svg version="1.0" xmlns="http://www.w3.org/2000/svg" width="700.000000pt" height="770.000000pt" viewBox="0 0 700.000000 770.000000" preserveAspectRatio="xMidYMid meet">
<metadata>
Created by potrace 1.12, written by Peter Selinger 2001-2015
</metadata>
<g transform="translate(0.000000,770.000000) scale(0.100000,-0.100000)" fill="#000000" stroke="none">
<path d="M3141 7616 c-9 -10 -9 -21 -3 -33 5 -10 13 -42 17 -70 4 -29 10 -55
15 -58 9 -5 23 152 15 166 -9 13 -31 11 -44 -5z"></path>
<path d="M3050 7585 c-9 -10 -10 -29 -5 -58 3 -23 9 -58 12 -77 3 -19 9 -39
12 -45 4 -5 13 -29 21 -52 7 -24 17 -43 22 -43 12 0 10 27 -7 67 -8 19 -15 42
-15 50 0 9 6 13 15 9 17 -6 22 29 5 39 -5 3 -10 25 -10 49 0 52 -28 87 -50 61z"></path>
<path d="M3231 7586 c-9 -11 -5 -24 19 -60 17 -25 34 -62 37 -81 3 -19 10 -35
15 -35 15 0 -8 126 -31 168 -14 25 -24 28 -40 8z"></path>
<path d="M3407 7533 c-2 -5 -10 -45 -17 -91 -13 -78 -13 -83 6 -96 18 -14 19
-27 17 -218 l-2 -203 34 -110 c19 -60 46 -155 60 -210 15 -55 29 -103 31 -107
2 -4 8 -26 13 -50 5 -24 24 -106 42 -183 30 -129 33 -155 34 -320 1 -99 3
-290 4 -425 2 -238 -4 -340 -34 -525 -17 -105 -18 -115 -7 -115 8 0 19 52 42
205 27 178 29 239 20 525 -6 195 -6 307 0 331 13 46 -11 229 -45 349 -7 25
-18 70 -24 100 -14 63 -28 116 -47 179 -8 25 -14 55 -14 67 0 13 -4 26 -10 29
-5 3 -10 16 -10 27 0 12 -11 56 -25 97 -14 42 -29 90 -34 106 -11 35 -7 498 4
567 5 34 4 52 -5 63 -14 16 -26 19 -33 8z"></path>
<path d="M3130 7386 c0 -9 5 -16 10 -16 6 0 10 4 10 9 0 6 -4 13 -10 16 -5 3
-10 -1 -10 -9z"></path>
<path d="M3310 7370 c0 -5 5 -10 10 -10 6 0 10 5 10 10 0 6 -4 10 -10 10 -5 0
-10 -4 -10 -10z"></path>
<path d="M2985 7309 c-4 -6 2 -20 13 -32 32 -36 62 -104 62 -142 0 -40 30 -85
111 -165 49 -48 59 -69 82 -170 38 -161 53 -275 67 -495 14 -217 19 -265 29
-290 19 -45 33 -136 28 -177 -4 -23 -13 -81 -22 -128 -8 -47 -15 -128 -15
-181 0 -89 -9 -136 -40 -206 -25 -56 -30 -72 -45 -143 -9 -41 -23 -95 -31
-120 -18 -53 -47 -211 -40 -218 16 -15 35 26 41 86 4 37 13 92 22 122 8 30 21
83 29 117 7 34 29 105 48 157 33 86 36 105 36 198 0 61 8 146 20 208 24 126
25 177 4 250 -25 90 -34 165 -44 350 -5 96 -16 213 -24 260 -9 47 -20 110 -25
140 -27 157 -43 195 -105 255 -58 58 -96 116 -103 161 -3 22 -14 56 -23 77
-17 34 -17 38 -2 47 15 9 14 12 -8 30 -28 22 -55 26 -65 9z"></path>
<path d="M3103 7214 c-8 -21 23 -52 37 -38 6 6 8 18 5 27 -9 22 -35 29 -42 11z"></path>
<path d="M2345 5536 c-89 -35 -136 -66 -197 -128 -117 -122 -181 -293 -148
-402 16 -55 32 -86 42 -86 12 0 10 34 -3 47 -6 6 -12 48 -13 95 -1 68 4 98 27
162 26 73 54 125 68 126 9 0 -2 -49 -12 -56 -11 -6 -12 -44 -1 -44 9 1 72 86
72 98 0 14 53 22 68 10 16 -14 15 -37 -2 -44 -24 -9 -27 -35 -10 -80 16 -42
16 -47 -4 -106 -12 -37 -18 -75 -15 -91 3 -16 0 -40 -8 -53 -16 -31 -2 -129
29 -192 11 -23 17 -42 12 -42 -12 0 -70 69 -70 84 0 8 -16 26 -35 40 -33 26
-51 22 -20 -4 8 -7 15 -16 15 -21 0 -5 16 -31 36 -59 34 -47 71 -69 92 -56 5
3 15 -1 22 -9 10 -12 9 -15 -4 -15 -14 0 -15 -10 -10 -72 4 -48 0 -110 -11
-181 -15 -94 -15 -125 -5 -230 14 -144 16 -149 48 -129 10 7 9 14 -2 38 -21
44 -29 206 -14 294 7 41 13 117 13 168 0 81 2 92 18 92 22 0 45 -54 88 -205
46 -166 58 -238 53 -330 -10 -168 -14 -189 -39 -207 -22 -17 -23 -17 -40 30
-33 92 -38 102 -47 102 -6 0 -7 -10 -3 -22 14 -48 24 -120 30 -234 6 -116 20
-241 31 -276 12 -38 25 -15 23 40 -2 60 14 193 30 252 6 19 16 58 24 85 8 31
14 114 16 215 2 160 -4 210 -38 330 -5 19 -14 51 -19 70 -11 41 -28 86 -43
116 -15 29 -8 58 14 62 10 2 36 -9 58 -24 36 -24 44 -26 70 -17 27 10 31 9 53
-20 14 -18 32 -51 41 -75 24 -60 17 -190 -13 -253 -12 -25 -22 -51 -22 -58 0
-6 -9 -31 -21 -54 -26 -55 -38 -142 -18 -135 8 3 18 30 24 68 6 35 16 65 23
68 6 2 12 -3 12 -10 0 -8 14 -30 31 -49 26 -29 209 -384 209 -406 0 -5 7 -20
14 -35 17 -32 11 -36 -16 -12 -14 14 -20 14 -33 4 -8 -7 -15 -22 -15 -33 0
-11 -7 -29 -17 -39 -13 -15 -16 -46 -18 -191 -2 -234 -19 -388 -68 -622 -34
-162 -50 -217 -87 -300 -18 -38 -43 -99 -56 -135 -14 -36 -44 -101 -68 -145
-24 -44 -62 -114 -84 -155 -22 -41 -61 -123 -86 -181 -41 -95 -47 -119 -56
-220 -5 -63 -12 -129 -16 -147 -3 -17 -2 -32 3 -32 18 0 34 68 39 170 3 58 10
119 16 135 32 89 131 285 195 387 13 21 23 40 23 44 0 3 18 43 39 87 51 105
94 210 110 267 7 25 19 68 26 95 8 28 16 68 19 90 3 22 9 60 15 85 18 79 20
93 35 210 9 63 19 135 22 160 4 25 8 120 8 212 1 166 1 168 27 193 23 23 30
25 81 19 46 -5 68 -15 115 -50 32 -24 64 -44 71 -44 7 0 22 -5 35 -12 49 -25
58 -28 82 -28 21 0 25 -5 25 -30 0 -20 6 -32 18 -36 9 -3 24 -10 32 -15 8 -5
24 -13 35 -18 28 -12 39 -28 61 -86 10 -27 28 -70 41 -94 18 -37 21 -54 16
-109 -6 -62 -5 -65 23 -87 25 -20 27 -25 17 -46 -14 -28 -15 -175 -1 -201 6
-13 3 -22 -9 -32 -31 -26 -305 -287 -394 -377 -104 -103 -232 -262 -310 -384
-80 -123 -97 -145 -120 -145 -12 0 -19 -7 -19 -20 0 -10 -8 -24 -19 -29 -29
-16 -89 -78 -162 -169 -36 -45 -85 -96 -108 -112 -45 -33 -53 -63 -21 -80 12
-6 49 -37 84 -69 35 -31 91 -72 125 -90 33 -17 61 -36 61 -41 0 -5 -11 -16
-23 -25 -13 -8 -38 -38 -56 -65 -34 -52 -94 -106 -147 -133 -54 -28 -118 -46
-139 -41 -23 6 -132 -47 -201 -97 -67 -49 -144 -120 -144 -133 0 -6 -31 -33
-68 -61 -138 -103 -219 -200 -213 -257 5 -59 -41 -88 -140 -88 -35 0 -56 7
-85 29 -33 23 -53 29 -114 33 -82 6 -135 -8 -208 -57 -21 -14 -51 -25 -67 -26
-17 0 -80 -8 -142 -17 l-112 -15 -48 24 c-26 13 -49 24 -51 25 -8 3 12 34 23
34 6 0 19 8 29 19 9 10 63 33 119 52 85 28 207 86 227 109 19 22 128 92 194
125 72 37 100 64 58 58 -9 -2 -109 -5 -222 -8 -113 -4 -225 -8 -250 -11 -25
-3 -135 -7 -244 -11 -151 -4 -213 -2 -255 8 -31 8 -99 14 -151 14 -79 0 -100
-3 -122 -20 -23 -17 -27 -28 -28 -68 0 -40 7 -57 47 -115 56 -81 336 -435 407
-514 l25 -28 553 0 c322 0 568 4 588 10 19 5 157 15 305 21 149 7 344 16 435
20 91 5 239 13 330 18 337 17 546 31 580 37 19 3 118 10 220 16 391 21 481 26
655 36 99 7 196 14 216 17 33 6 105 11 494 34 264 16 461 31 485 37 24 6 143
15 430 34 215 14 370 29 382 36 12 7 175 19 478 34 96 5 219 12 273 16 l97 7
0 116 0 116 -53 23 c-28 13 -77 35 -107 49 -30 14 -64 29 -75 33 -23 9 -93 41
-208 94 -43 20 -81 36 -86 36 -4 0 -32 12 -62 27 -150 76 -266 113 -354 113
-69 0 -77 2 -110 31 -20 18 -45 50 -56 73 -10 22 -23 48 -28 56 -5 8 -18 35
-29 60 -11 25 -35 77 -52 115 -40 88 -69 154 -80 180 -26 66 -42 102 -50 117
-6 10 -10 23 -10 28 0 16 -61 139 -72 146 -21 13 -17 -6 16 -77 19 -41 41 -96
50 -122 9 -27 42 -104 73 -170 30 -67 63 -142 72 -167 59 -158 140 -280 186
-280 16 0 59 -37 179 -154 44 -43 111 -103 148 -133 88 -72 96 -97 41 -137
-21 -16 -29 -17 -45 -7 -14 9 -32 9 -77 0 -50 -11 -63 -10 -83 3 -12 8 -35 18
-50 21 -15 4 -29 15 -32 25 -15 44 -128 132 -170 132 -48 0 -62 59 -17 70 15
3 28 16 34 33 8 24 4 33 -36 77 -36 40 -52 70 -77 147 -34 103 -64 158 -113
211 -36 37 -49 39 -85 13 l-27 -19 -106 113 c-115 123 -170 202 -148 215 7 5
32 11 57 15 52 8 120 64 147 122 22 45 14 113 -18 163 -13 19 -26 43 -30 53
-4 9 -15 20 -24 24 -24 8 -113 94 -113 108 0 7 -12 22 -26 36 -29 27 -48 65
-64 129 -13 52 -29 106 -41 135 -60 154 -86 219 -107 265 -13 30 -29 66 -34
80 -14 34 -20 46 -58 115 -52 94 -88 144 -159 221 -93 101 -112 129 -156 229
-31 70 -54 111 -82 152 -13 17 -23 37 -23 43 0 7 -51 62 -113 124 -62 61 -134
140 -159 176 -49 70 -148 237 -148 251 0 14 -51 102 -74 129 -43 50 -86 109
-86 118 0 5 -11 17 -25 26 -14 9 -25 25 -25 36 0 10 -4 22 -10 25 -5 3 -10 16
-10 28 0 13 -29 59 -64 103 -68 86 -80 94 -241 155 -98 36 -145 58 -246 115
-109 61 -132 64 -251 37 -106 -24 -120 -22 -177 26 -81 68 -73 88 78 218 42
36 38 65 -14 117 -19 20 -35 40 -35 45 0 6 -21 24 -46 42 -43 29 -45 33 -39
66 9 50 -6 63 -76 63 -73 0 -78 -18 -6 -22 52 -3 52 -3 55 -38 2 -19 13 -45
25 -58 18 -19 20 -27 10 -52 -14 -37 -6 -44 25 -24 13 8 25 14 27 12 36 -39
75 -93 75 -105 0 -8 -19 -31 -42 -51 -124 -108 -136 -141 -71 -213 49 -54 85
-72 132 -64 32 5 43 2 68 -19 17 -14 40 -26 50 -26 22 0 320 -194 365 -237 40
-38 49 -81 33 -145 -18 -68 -67 -137 -179 -252 -129 -134 -237 -182 -314 -142
-33 18 -179 166 -219 222 -16 22 -62 78 -103 123 l-75 82 0 92 c0 101 -21 181
-55 212 -11 10 -20 26 -20 36 0 21 -44 67 -129 133 -88 69 -97 85 -75 131 10
22 15 48 11 69 -3 22 0 41 8 53 8 10 15 24 15 31 0 18 -51 72 -67 72 -7 0 -13
4 -13 9 0 5 -11 22 -23 38 -20 24 -24 39 -23 101 1 51 -3 72 -11 72 -19 0 -16
14 7 35 11 10 26 15 36 11 10 -4 30 7 56 29 32 27 47 33 67 29 46 -10 136 -37
146 -44 20 -13 46 -20 40 -10 -12 19 -134 70 -169 70 -19 0 -38 5 -41 10 -8
13 -41 11 -80 -4z m1977 -3087 c21 -5 65 -31 97 -57 267 -212 366 -304 441
-412 89 -127 136 -181 182 -207 34 -20 114 -80 143 -108 24 -22 65 -83 65 -94
0 -36 105 -164 273 -333 202 -204 242 -250 234 -272 -8 -20 -90 -26 -707 -55
-482 -22 -661 -31 -740 -37 -47 -3 -197 -10 -335 -14 -572 -20 -1036 -40
-1260 -55 -44 -3 -188 -10 -320 -15 -132 -6 -293 -13 -359 -16 -132 -6 -143 0
-66 43 25 14 79 49 120 78 59 41 87 54 128 59 49 6 70 12 132 39 53 23 149 99
171 134 28 46 84 119 119 153 14 14 39 46 56 70 17 25 44 52 60 60 42 21 62
37 161 128 91 84 312 264 349 285 126 70 427 289 587 427 183 157 223 183 325
205 57 13 76 12 144 -6z"></path>
<path d="M2611 5391 c-13 -18 -17 -32 -11 -36 5 -3 10 -19 10 -34 0 -27 16
-51 33 -51 5 0 7 9 4 20 -3 11 1 23 8 28 15 9 6 93 -11 99 -7 2 -21 -9 -33
-26z"></path>
<path d="M2435 5223 c23 -93 26 -134 12 -163 -16 -31 -13 -40 13 -40 21 0 60
41 60 63 0 9 -11 24 -25 33 -21 14 -25 24 -25 63 0 44 -12 71 -33 71 -5 0 -6
-12 -2 -27z"></path>
<path d="M2085 4920 c3 -5 8 -10 11 -10 2 0 4 5 4 10 0 6 -5 10 -11 10 -5 0
-7 -4 -4 -10z"></path>
<path d="M2065 4870 c3 -5 8 -10 11 -10 2 0 4 5 4 10 0 6 -5 10 -11 10 -5 0
-7 -4 -4 -10z"></path>
<path d="M3580 4851 c0 -39 69 -209 70 -174 1 18 -56 183 -62 183 -5 0 -8 -4
-8 -9z"></path>
<path d="M2130 4795 c13 -14 26 -23 28 -20 7 7 -29 45 -41 45 -6 0 0 -11 13
-25z"></path>
<path d="M2466 3533 c8 -27 19 -62 24 -79 14 -43 12 -123 -4 -229 -7 -49 -19
-137 -26 -195 -12 -109 -19 -134 -52 -210 -11 -25 -27 -61 -35 -80 -8 -19 -19
-44 -24 -55 -12 -27 -29 -99 -39 -160 -4 -27 -17 -97 -28 -155 -11 -58 -23
-121 -26 -140 -13 -95 -67 -284 -85 -298 -11 -9 -16 -29 -16 -60 0 -39 -9 -61
-54 -132 -30 -47 -70 -102 -90 -123 -25 -26 -36 -48 -37 -70 -1 -18 -7 -59
-14 -92 -6 -33 -15 -80 -20 -105 -8 -53 -25 -95 -39 -105 -6 -3 -11 -23 -11
-43 0 -35 -8 -44 -122 -149 -166 -150 -257 -217 -380 -278 -57 -29 -79 -53
-35 -39 42 13 167 88 244 146 101 76 293 250 293 265 0 6 10 15 22 19 13 4 61
43 109 88 47 45 103 95 123 113 34 28 37 36 30 60 -4 15 -9 46 -10 68 -1 22
-4 39 -8 38 -3 -2 -17 -3 -31 -3 -15 0 -40 -14 -61 -32 -31 -30 -35 -39 -39
-93 -2 -44 1 -65 12 -77 13 -14 13 -20 3 -33 -7 -8 -20 -15 -28 -15 -9 0 -26
-12 -38 -27 -31 -39 -40 -23 -21 39 23 81 47 189 51 235 2 29 13 53 33 76 50
57 134 204 139 244 3 21 14 58 25 83 20 48 89 312 89 343 0 17 25 144 65 330
8 38 38 120 66 184 48 108 52 123 65 252 8 75 18 163 24 197 20 123 9 252 -30
323 -20 38 -29 21 -14 -26z m-350 -2074 c6 -19 19 -35 28 -37 16 -4 23 -22 7
-22 -4 0 -25 -11 -45 -25 -21 -14 -42 -22 -48 -19 -12 8 -6 75 11 117 14 36
33 30 47 -14z"></path>
<path d="M2200 1475 c0 -8 5 -15 10 -15 6 0 10 7 10 15 0 8 -4 15 -10 15 -5 0
-10 -7 -10 -15z"></path>
<path d="M2282 1388 c6 -18 28 -21 28 -4 0 9 -7 16 -16 16 -9 0 -14 -5 -12
-12z"></path>
<path d="M2217 1343 c-7 -11 19 -53 34 -53 14 0 11 12 -10 39 -10 13 -21 19
-24 14z"></path>
<path d="M1480 570 c0 -5 9 -10 20 -10 11 0 20 5 20 10 0 6 -9 10 -20 10 -11
0 -20 -4 -20 -10z"></path>
</g>
</svg>