 <svg version="1.0" xmlns="http://www.w3.org/2000/svg" width="700.000000pt" height="786.000000pt" viewBox="0 0 700.000000 786.000000" preserveAspectRatio="xMidYMid meet">
<metadata>
Created by potrace 1.12, written by Peter Selinger 2001-2015
</metadata>
<g transform="translate(0.000000,786.000000) scale(0.100000,-0.100000)" fill="#000000" stroke="none">
<path d="M3400 7670 c-8 -16 -8 -20 3 -20 18 0 39 24 30 33 -11 12 -22 8 -33
-13z"></path>
<path d="M3323 7638 c-7 -12 -32 -94 -33 -110 0 -5 5 -8 10 -8 6 0 10 4 10 9
0 7 28 75 48 114 6 12 -26 8 -35 -5z"></path>
<path d="M3483 7617 c-15 -19 -45 -259 -34 -270 14 -14 27 20 35 88 4 33 10
88 14 123 8 63 3 83 -15 59z"></path>
<path d="M3386 7564 c-4 -15 -4 -29 -1 -32 8 -8 25 19 25 41 0 26 -17 20 -24
-9z"></path>
<path d="M3530 7495 c0 -57 4 -95 10 -95 6 0 10 38 10 95 0 57 -4 95 -10 95
-6 0 -10 -38 -10 -95z"></path>
<path d="M3173 7548 c-4 -7 -9 -67 -10 -133 -2 -66 -6 -159 -9 -207 -4 -58 -2
-88 4 -88 12 0 23 116 25 275 1 61 5 115 10 122 4 6 16 9 27 6 22 -6 26 7 8
25 -16 16 -45 15 -55 0z"></path>
<path d="M3277 7473 c-3 -5 -9 -41 -12 -81 -7 -62 -5 -72 9 -72 20 0 27 31 23
97 -3 52 -10 72 -20 56z"></path>
<path d="M3356 7382 c-3 -6 -1 -14 5 -17 15 -10 25 3 12 16 -7 7 -13 7 -17 1z"></path>
<path d="M3533 7354 c-4 -10 0 -22 10 -29 14 -10 18 -34 21 -111 l4 -99 -51
-85 c-39 -66 -52 -97 -55 -137 -3 -35 -1 -53 7 -53 6 0 11 18 11 45 0 43 22
89 90 185 14 21 18 48 18 140 1 63 2 124 4 135 4 27 -49 35 -59 9z"></path>
<path d="M3164 7050 c3 -16 9 -43 12 -60 3 -16 10 -30 15 -30 5 0 7 10 5 23
-3 12 -8 39 -11 60 -3 20 -11 37 -16 37 -6 0 -8 -12 -5 -30z"></path>
<path d="M3157 6913 c-11 -10 -8 -43 3 -43 6 0 10 4 10 9 0 5 3 16 6 25 6 16
-7 22 -19 9z"></path>
<path d="M3130 6805 c0 -14 5 -25 10 -25 6 0 10 11 10 25 0 14 -4 25 -10 25
-5 0 -10 -11 -10 -25z"></path>
<path d="M3475 6773 c13 -105 27 -182 47 -263 22 -89 32 -135 47 -210 5 -25
23 -92 39 -150 16 -58 35 -154 41 -215 6 -60 16 -114 22 -120 7 -7 8 11 4 60
-13 131 -23 210 -33 245 -6 19 -18 60 -27 90 -15 54 -27 103 -45 185 -4 22
-16 65 -25 95 -17 57 -36 164 -51 288 -3 23 -10 42 -15 42 -6 0 -8 -18 -4 -47z"></path>
<path d="M3110 6675 c0 -19 5 -35 10 -35 6 0 10 16 10 35 0 19 -4 35 -10 35
-5 0 -10 -16 -10 -35z"></path>
<path d="M3250 6500 c0 -100 4 -160 10 -160 6 0 10 60 10 160 0 100 -4 160
-10 160 -6 0 -10 -60 -10 -160z"></path>
<path d="M3100 6610 c0 -5 5 -10 10 -10 6 0 10 5 10 10 0 6 -4 10 -10 10 -5 0
-10 -4 -10 -10z"></path>
<path d="M3086 6558 c-9 -36 -7 -78 4 -78 6 0 10 15 10 34 0 19 3 41 6 50 3 9
2 16 -4 16 -5 0 -12 -10 -16 -22z"></path>
<path d="M3070 6450 c0 -5 5 -10 10 -10 6 0 10 5 10 10 0 6 -4 10 -10 10 -5 0
-10 -4 -10 -10z"></path>
<path d="M3060 6400 c0 -11 5 -20 10 -20 6 0 10 9 10 20 0 11 -4 20 -10 20 -5
0 -10 -9 -10 -20z"></path>
<path d="M3040 6290 c0 -5 5 -10 10 -10 6 0 10 5 10 10 0 6 -4 10 -10 10 -5 0
-10 -4 -10 -10z"></path>
<path d="M3030 6210 c0 -11 5 -20 10 -20 6 0 10 9 10 20 0 11 -4 20 -10 20 -5
0 -10 -9 -10 -20z"></path>
<path d="M3274 6058 c4 -68 9 -163 10 -213 2 -58 10 -110 23 -145 11 -30 28
-98 38 -150 31 -172 40 -196 108 -298 107 -162 137 -234 105 -259 -7 -6 -31
-14 -53 -18 -85 -15 -143 -66 -203 -178 -20 -39 -113 -140 -190 -210 -85 -75
-130 -148 -157 -252 -18 -69 -19 -107 -5 -121 12 -12 32 -104 32 -149 0 -16
-7 -70 -17 -120 -9 -49 -21 -160 -25 -245 -8 -155 -16 -216 -30 -235 -13 -17
-24 -78 -26 -145 -4 -129 -15 -256 -26 -293 -9 -30 -9 -43 0 -58 16 -25 8 -39
-18 -32 -11 3 -31 -2 -45 -11 -13 -9 -33 -16 -44 -16 -11 0 -35 -9 -53 -19
-22 -13 -64 -21 -123 -26 -113 -9 -285 -31 -347 -45 -110 -24 -135 -30 -180
-42 -26 -8 -50 -17 -54 -21 -4 -4 -18 -7 -31 -7 -13 0 -31 -4 -41 -9 -45 -23
-94 -41 -111 -41 -10 0 -21 -3 -24 -7 -9 -9 -134 -53 -170 -60 -15 -3 -30 -9
-33 -14 -3 -5 -12 -9 -21 -9 -28 0 -74 -41 -92 -83 -25 -58 -41 -149 -41 -238
0 -46 -6 -85 -15 -103 -21 -40 -19 -73 7 -87 70 -38 348 -64 413 -39 25 10 26
13 20 58 -10 72 4 95 61 109 105 25 249 36 384 28 176 -10 498 -11 580 -2 85
10 247 36 285 47 53 15 178 21 235 11 147 -26 210 -51 383 -153 54 -32 104
-58 111 -58 7 0 16 -4 22 -8 5 -5 25 -15 44 -22 117 -44 239 -103 324 -157 93
-60 281 -156 336 -173 25 -7 65 -23 90 -35 67 -32 107 -45 187 -60 40 -7 78
-17 85 -21 7 -5 31 -9 53 -10 23 -1 60 -13 85 -28 25 -14 53 -26 63 -26 9 0
50 -22 90 -49 177 -119 243 -161 255 -161 20 0 68 -27 130 -74 72 -55 98 -84
86 -95 -11 -10 -155 -25 -564 -60 -69 -6 -136 -13 -150 -16 -43 -9 -255 -29
-580 -54 -69 -5 -197 -17 -285 -26 -88 -9 -214 -20 -280 -25 -313 -24 -380
-30 -520 -45 -82 -10 -202 -21 -265 -26 -246 -18 -361 -28 -510 -45 -85 -9
-211 -20 -280 -24 -331 -21 -537 -41 -557 -53 -6 -4 -4 -39 6 -94 9 -48 15
-96 13 -105 -5 -25 -60 -55 -114 -63 -39 -6 -54 -3 -85 15 -34 20 -45 21 -147
15 -117 -7 -165 -19 -247 -61 -37 -18 -83 -29 -167 -39 -64 -8 -129 -17 -144
-21 -42 -9 -96 13 -113 46 -11 22 -12 30 -2 37 29 23 225 113 257 119 39 7
176 70 185 85 4 5 23 9 43 9 48 1 117 51 160 115 49 74 67 171 67 360 0 88 -7
212 -15 275 -9 72 -15 197 -15 333 0 119 -3 217 -6 217 -3 0 -11 -29 -17 -64
-16 -86 -15 -256 2 -390 34 -260 39 -318 32 -418 -6 -101 -24 -199 -39 -214
-4 -4 -7 -15 -7 -24 0 -32 -31 -79 -80 -123 l-50 -45 -97 -5 c-290 -17 -425
-27 -436 -34 -15 -9 -274 -24 -530 -29 l-207 -5 0 -219 c0 -120 3 -220 8 -222
4 -2 45 -60 92 -130 l85 -128 892 0 c606 0 901 3 920 11 15 5 86 15 158 20 71
5 173 14 225 20 52 5 138 14 190 19 220 19 326 30 345 37 19 6 78 12 305 32
237 21 336 32 349 37 15 5 139 19 296 34 261 25 312 30 335 36 14 3 70 11 125
16 55 5 136 13 180 18 44 5 127 13 185 20 58 6 112 13 121 16 9 2 63 9 120 15
377 39 461 49 470 55 8 4 116 18 274 34 177 17 288 31 296 36 5 3 55 9 111 15
265 26 424 46 482 59 23 5 66 10 97 10 30 0 59 4 65 9 5 5 43 12 84 15 41 3
101 8 133 12 l57 6 -2 166 -3 165 -30 17 c-16 9 -66 31 -110 49 -44 19 -140
62 -213 97 -73 35 -136 64 -140 64 -5 0 -32 11 -60 25 -29 14 -56 25 -62 25
-6 0 -18 4 -28 9 -63 33 -190 51 -250 35 -37 -10 -20 -47 53 -118 77 -73 81
-96 36 -192 -16 -34 -32 -75 -36 -93 -5 -24 -19 -38 -66 -66 -33 -19 -64 -35
-68 -35 -5 0 -14 -7 -21 -15 -7 -8 -24 -15 -39 -14 -14 1 -40 -2 -58 -6 -25
-6 -33 -3 -42 13 -9 16 -18 18 -59 14 l-48 -4 1 68 c2 64 4 69 37 98 44 39 62
84 54 133 -3 21 -8 56 -11 77 -8 65 -13 72 -108 161 -62 58 -114 96 -157 117
-36 17 -81 43 -100 58 -19 14 -66 44 -105 66 -38 22 -81 47 -95 55 -14 8 -26
15 -28 15 -2 1 8 29 23 63 30 72 51 193 41 242 -3 20 -18 46 -31 59 -26 24
-86 50 -118 50 -9 0 -25 4 -35 8 -9 5 -46 23 -82 41 -36 17 -72 31 -80 31 -18
0 -82 33 -124 64 -15 11 -83 73 -150 136 -66 64 -150 140 -186 169 -99 82
-250 226 -250 239 0 6 -27 45 -60 86 -40 50 -60 85 -60 102 0 15 -11 42 -25
60 -14 18 -25 38 -25 44 0 15 -101 160 -112 160 -15 0 -93 85 -113 124 -11 21
-30 42 -43 47 -12 5 -21 12 -20 16 1 5 -2 19 -6 32 -5 14 -4 27 3 34 14 14 14
54 1 62 -23 14 -7 116 31 201 10 23 21 54 25 68 3 14 10 29 15 32 5 3 9 20 9
39 0 19 5 37 10 40 6 3 10 14 10 24 0 10 7 24 15 31 9 8 15 29 15 56 0 23 5
46 10 49 6 3 10 17 10 29 0 13 7 29 15 36 8 7 15 18 15 25 0 7 16 32 35 56 19
24 35 48 35 53 0 17 35 85 44 86 8 0 5 -20 -9 -67 -5 -14 -3 -23 4 -23 9 0 36
50 55 105 4 11 25 50 47 86 83 138 100 225 82 412 -10 113 -21 75 -20 -70 2
-111 -2 -149 -17 -193 -18 -55 -65 -134 -74 -126 -4 5 24 97 39 128 13 26 11
145 -3 167 -9 15 -9 35 1 88 21 112 23 116 32 102 15 -24 23 1 11 33 -9 26 -9
35 3 47 7 9 15 39 17 66 2 40 7 51 23 54 32 6 129 77 160 116 15 21 41 72 57
114 48 122 39 237 -26 346 -40 68 -130 178 -169 208 -51 39 -144 80 -163 73
-15 -6 -12 -12 18 -44 20 -20 38 -48 40 -61 4 -32 28 -40 28 -9 0 13 4 30 10
38 13 21 48 -1 106 -68 128 -148 175 -262 156 -376 -15 -94 -69 -202 -127
-255 -55 -51 -68 -43 -32 21 62 112 61 328 -3 433 -10 17 -21 50 -25 75 -4 24
-16 61 -27 82 -17 32 -23 37 -35 26 -13 -11 -13 -14 6 -26 23 -16 29 -70 10
-89 -16 -16 -3 -47 16 -39 23 9 75 -119 75 -186 0 -21 -5 -28 -20 -28 -23 0
-45 31 -55 78 -4 17 -11 32 -17 32 -6 0 -8 -14 -5 -32 2 -18 0 -69 -5 -112 -8
-60 -7 -85 3 -103 10 -19 10 -28 1 -43 -7 -11 -12 -27 -12 -36 0 -32 -25 -6
-34 34 -5 23 -12 42 -15 42 -4 0 -24 -24 -46 -52 -21 -29 -56 -69 -77 -88 -35
-31 -38 -39 -32 -67 9 -46 28 -59 60 -43 21 12 27 11 41 -2 15 -15 14 -20 -7
-65 -35 -74 -30 -150 15 -238 30 -59 35 -79 35 -136 0 -37 -4 -71 -10 -74 -9
-5 -25 -38 -52 -105 -6 -14 -17 -38 -26 -55 -21 -40 -28 -55 -40 -85 -27 -69
-67 -143 -80 -148 -21 -8 -110 25 -149 54 -17 13 -36 24 -42 24 -17 0 -88 68
-113 108 -44 72 -48 98 -54 352 -3 134 -7 246 -10 249 -7 7 -67 -65 -89 -106
-54 -103 -167 -263 -221 -313 -111 -102 -180 -122 -219 -64 -31 48 8 113 103
166 70 40 168 131 192 178 23 46 74 90 103 90 31 0 41 9 72 65 15 28 36 62 46
77 23 32 24 51 4 68 -8 7 -25 33 -37 59 -13 25 -42 76 -65 113 -24 36 -43 69
-43 72 0 3 -10 20 -22 38 -13 19 -29 63 -36 98 -7 36 -17 79 -22 96 -6 17 -10
39 -10 50 0 10 -10 48 -22 84 -20 63 -32 167 -44 398 -4 61 -10 102 -16 102
-7 0 -9 -39 -4 -122z m956 -1027 c0 -20 -13 -41 -21 -35 -15 9 -10 44 6 44 8
0 15 -4 15 -9z m-971 -372 c-29 -18 -36 -10 -18 23 11 20 12 20 21 3 8 -12 7
-20 -3 -26z m-121 -346 c11 -14 13 -43 9 -119 -4 -84 -9 -109 -32 -155 -26
-49 -29 -68 -37 -214 -5 -97 -14 -172 -22 -191 -8 -17 -24 -73 -36 -125 -23
-96 -53 -196 -69 -227 -5 -9 -14 -64 -21 -122 -14 -127 -29 -195 -42 -182 -5
5 -5 20 2 36 5 15 10 58 10 95 0 37 7 89 14 116 10 32 13 69 9 110 -6 62 14
150 41 184 6 8 13 76 17 160 3 80 14 202 24 270 18 118 18 127 2 206 -25 121
-23 151 11 170 34 19 101 13 120 -12z"></path>
<path d="M3010 6040 c0 -47 4 -80 10 -80 6 0 10 33 10 80 0 47 -4 80 -10 80
-6 0 -10 -33 -10 -80z"></path>
<path d="M4031 5901 c-19 -3 -37 -12 -39 -20 -3 -10 0 -12 11 -8 9 3 32 9 51
13 20 3 36 10 36 15 0 10 -7 10 -59 0z"></path>
<path d="M3012 5883 c2 -5 10 -25 18 -45 8 -21 18 -38 22 -38 11 0 10 4 -8 50
-9 22 -21 40 -26 40 -5 0 -8 -3 -6 -7z"></path>
<path d="M3898 5829 c-32 -18 -19 -27 34 -23 57 4 70 11 48 24 -20 13 -61 12
-82 -1z"></path>
<path d="M3701 5776 c-11 -13 -11 -22 -1 -46 13 -32 36 -42 27 -12 -2 9 -6 23
-8 31 -3 11 10 13 64 12 42 -2 67 2 67 8 0 6 -21 11 -47 11 -27 0 -57 3 -69 6
-12 3 -26 -1 -33 -10z"></path>
<path d="M3938 5776 c-16 -12 -15 -14 12 -35 25 -18 31 -19 36 -7 16 41 -15
68 -48 42z"></path>
<path d="M3050 5740 c0 -11 5 -20 10 -20 6 0 10 9 10 20 0 11 -4 20 -10 20 -5
0 -10 -9 -10 -20z"></path>
<path d="M3062 5640 c5 -46 13 -70 21 -59 8 10 -6 109 -15 109 -7 0 -9 -19 -6
-50z"></path>
<path d="M4156 5658 c-18 -25 -21 -48 -7 -48 24 0 41 14 41 35 0 33 -16 39
-34 13z"></path>
<path d="M4116 5551 c-14 -15 -15 -24 -7 -40 12 -21 41 -41 60 -41 17 0 13 38
-6 71 -20 34 -24 35 -47 10z"></path>
<path d="M3080 5554 c0 -3 6 -32 14 -63 8 -31 17 -73 20 -93 4 -21 12 -38 18
-38 5 0 8 10 5 23 -30 136 -41 177 -48 177 -5 0 -9 -3 -9 -6z"></path>
<path d="M3450 5551 c0 -6 5 -13 10 -16 6 -3 10 1 10 9 0 9 -4 16 -10 16 -5 0
-10 -4 -10 -9z"></path>
<path d="M4050 5400 c0 -5 11 -10 25 -10 14 0 25 5 25 10 0 6 -11 10 -25 10
-14 0 -25 -4 -25 -10z"></path>
<path d="M3130 5310 c0 -50 48 -223 85 -305 8 -17 20 -52 27 -78 6 -26 16 -47
20 -47 14 0 9 20 -48 188 -31 91 -58 189 -61 219 -6 56 -23 74 -23 23z"></path>
<path d="M4072 4118 c-16 -33 -42 -116 -42 -135 0 -10 -6 -14 -20 -10 -23 6
-34 -10 -44 -65 -16 -88 54 -16 93 95 27 77 41 123 41 130 0 15 -17 6 -28 -15z"></path>
<path d="M1864 1878 c1 -191 -8 -240 -57 -321 -17 -27 -36 -79 -44 -115 -51
-244 -67 -596 -28 -609 6 -2 11 64 12 175 2 97 7 204 13 237 5 33 14 92 20
131 6 39 18 84 27 100 80 146 85 171 84 368 0 93 -3 177 -6 187 -16 49 -22 5
-21 -153z"></path>
<path d="M5360 1869 c8 -5 44 -27 80 -48 48 -28 86 -63 143 -131 44 -52 90
-102 103 -113 14 -10 57 -58 96 -105 81 -98 247 -272 260 -272 16 0 7 16 -34
61 -24 25 -81 88 -128 140 -47 51 -123 134 -170 185 -47 50 -113 122 -147 161
-47 53 -78 78 -127 102 -61 29 -111 43 -76 20z"></path>
<path d="M5860 750 c0 -5 5 -10 10 -10 6 0 10 5 10 10 0 6 -4 10 -10 10 -5 0
-10 -4 -10 -10z"></path>
<path d="M1384 629 c-10 -17 13 -36 27 -22 12 12 4 33 -11 33 -5 0 -12 -5 -16
-11z"></path>
</g>
</svg>